<?xml version="1.0" encoding="utf-8"?><svg xmlns="http://www.w3.org/2000/svg" xmlns:xlink="http://www.w3.org/1999/xlink"><symbol fill="none" viewBox="0 0 48 48" id="active-duty-and-veteran" xmlns="http://www.w3.org/2000/svg"><path d="M12.1 3.11v16.11c0 1.43.78 2.74 2.03 3.42l7.16 3.91.86-1.58-1.26-.69V4.91h6.2v19.37l-3.8 2.07L23 27l-2.03 4.51c-.05.03-.09.06-.13.1l-6.69.71a.3.3 0 0 0-.17.52l5 4.51c.02.06.03.1.05.16l-1.4 6.58c-.05.25.22.45.44.32l5.83-3.36h.17l5.83 3.36c.22.13.5-.07.44-.32l-1.4-6.58c.02-.06.03-.1.05-.16l5-4.51a.3.3 0 0 0-.17-.52l-6.69-.71s-.09-.06-.13-.1l-1.01-2.27-1.64.73 1.01 2.27c.29.64.89 1.08 1.59 1.15l3.35.35-2.5 2.25c-.52.47-.75 1.18-.61 1.87l.7 3.29-2.92-1.68a1.98 1.98 0 0 0-1.97 0l-2.92 1.68.7-3.29c.15-.69-.09-1.4-.61-1.87l-2.5-2.25 3.35-.35c.7-.07 1.3-.51 1.59-1.15l2.03-4.51.04-.1 9.17-5c1.25-.68 2.03-2 2.03-3.42V3.11H12.1Zm7 20.19-4.11-2.24a2.1 2.1 0 0 1-1.09-1.84V4.91h5.2V23.3Zm15-4.08c0 .77-.42 1.48-1.09 1.84L28.9 23.3V4.91h5.2v14.31Z" fill="currentColor"/></symbol><symbol fill="none" viewBox="0 0 48 48" id="animals" xmlns="http://www.w3.org/2000/svg"><path d="M21.82 16.16c-.76-.11-1.28-.95-1.16-1.87.12-.92.84-1.57 1.6-1.46.76.11 1.28.95 1.16 1.87-.12.92-.84 1.57-1.6 1.46Zm22.91 17.07-.92-1.4s-2.99-4.63-4.48-15.02c-.96-6.7-4.41-10.69-9.99-11.53-7.89-1.2-11.92 4.39-12.97 6.15H4.25l-.19.64c-.06.19-1.38 4.81 1.03 8.67 1.53 2.45 4.17 4 7.86 4.63 1.16.19 2.21.22 3.15.15v7.47h1.8v-7.73c2.26-.51 3.57-1.49 3.65-1.56l-1.1-1.43c-.11.08-2.78 2.06-7.21 1.31-3.15-.53-5.38-1.81-6.62-3.79-1.51-2.41-1.21-5.31-.98-6.58h11.83l.25-.51c.03-.07 3.39-6.87 11.36-5.65 4.78.73 7.63 4.09 8.48 10.01 1.09 7.64 2.94 12.23 3.98 14.35-5.45-.05-9.89-.7-9.89-8.33h-1.8c0 7.46 3.81 9.43 8.29 9.94v4.16c-2.55.86-13.18 3.88-21.11-1.98a4.365 4.365 0 0 0-2.82-1.04 4.37 4.37 0 0 0-4.36 4.36c0 2.4 1.96 4.36 4.36 4.36 1.76 0 3.33-1.04 4.02-2.66l-1.66-.7c-.4.95-1.33 1.56-2.36 1.56-1.41 0-2.56-1.15-2.56-2.56 0-1.41 1.15-2.56 2.56-2.56.61 0 1.19.21 1.7.64 9.88 7.31 22.91 2.26 23.46 2.04l.57-.23v-5.26c1.04.05 2.09.05 3.12.05h1.67v.03Z" fill="currentColor"/></symbol><symbol fill="none" viewBox="0 0 48 48" id="arts-culture-humanities" xmlns="http://www.w3.org/2000/svg"><path d="M26.26 18.72a3.157 3.157 0 0 1-3.16-3.16V3h1.8v12.56c0 .62.42 1.16 1.01 1.32.59.16 1.23-.1 1.53-.64l6.28-10.87 1.56.9L29 17.14a3.17 3.17 0 0 1-2.74 1.58Zm-6.21 1.33a3.162 3.162 0 0 0 .5-3.82L14.27 5.36l-1.56.9 6.28 10.87c.31.53.22 1.21-.22 1.64-.44.44-1.11.53-1.65.22L6.25 12.71l-.9 1.56 10.87 6.28c.49.28 1.04.42 1.58.42.82 0 1.63-.32 2.24-.92h.01ZM17.14 29a3.168 3.168 0 0 0 1.47-3.56 3.166 3.166 0 0 0-3.05-2.34H3v1.8h12.56c.62 0 1.16.42 1.32 1.01.16.59-.1 1.22-.64 1.53L5.37 33.72l.9 1.56L17.14 29Zm7.76 3.44c0-1.43-.96-2.69-2.34-3.05-1.38-.37-2.84.24-3.56 1.47l-6.28 10.87 1.56.9 6.28-10.87c.31-.53.94-.8 1.53-.64.59.16 1.01.7 1.01 1.32V45h1.8V32.44Zm10.38 9.3L29 30.87c-.31-.53-.22-1.21.22-1.64.44-.44 1.11-.53 1.65-.22l10.87 6.28.9-1.56-10.87-6.28a3.176 3.176 0 0 0-3.82.5 3.162 3.162 0 0 0-.5 3.82l6.28 10.87 1.56-.9h-.01ZM45 23.1H32.44c-.62 0-1.16-.42-1.32-1.01-.16-.59.1-1.22.64-1.53l10.87-6.28-.9-1.56L30.86 19a3.168 3.168 0 0 0-1.47 3.56 3.166 3.166 0 0 0 3.05 2.34H45v-1.8Z" fill="currentColor"/></symbol><symbol fill="none" viewBox="0 0 48 48" id="birthday" xmlns="http://www.w3.org/2000/svg"><path d="M37 28.15c2.15 0 3.91 1.92 3.91 4.28v7.03c0 1.9-1.6 3.45-3.57 3.45H10.67c-1.97 0-3.57-1.55-3.57-3.45v-7.03c0-2.36 1.75-4.28 3.91-4.28H37Zm-7.47 6.08c-.73 0-1.11.4-1.77 1.17-.75.87-1.78 2.05-3.76 2.05-1.98 0-2.99-1.17-3.73-2.02-.65-.78-1.06-1.2-1.78-1.2s-1.1.4-1.76 1.17c-.76.88-1.75 2.05-3.75 2.05s-3.02-1.18-3.76-2.04l-.09-.1-.23-.26v4.4c0 .91.8 1.65 1.77 1.65h26.66c.98 0 1.77-.74 1.77-1.65V35.1c-.06.07-.13.14-.19.21l-.1.11c-.74.85-1.76 2.03-3.75 2.03s-3.01-1.18-3.75-2.04c-.69-.79-1.05-1.18-1.78-1.18Zm-18.52-4.29c-1.16 0-2.11 1.11-2.11 2.48v.34h.02l.12.06c.22.12.4.26.55.38l.08.06c.17.14.33.29.47.45.03.03.06.06.09.1l.26.29.09.11c.66.77 1.24 1.43 2.4 1.43s1.72-.65 2.37-1.4c.71-.82 1.54-1.82 3.15-1.82 1.61 0 2.46 1 3.14 1.81.66.76 1.21 1.41 2.38 1.41s1.73-.66 2.39-1.42c.69-.8 1.57-1.8 3.14-1.8s2.41.97 3.09 1.75c.7.81 1.26 1.47 2.43 1.47 1.17 0 1.73-.66 2.39-1.42l.1-.12c.09-.1.18-.21.28-.31.2-.22.33-.35.47-.48l.15-.12c.13-.1.32-.25.55-.37l.09-.04h-.01v-.36c0-1.37-.94-2.48-2.11-2.48H11.01ZM24.72 7.5c.42.56.81 1.03 1.15 1.45 1.18 1.44 2.03 2.48 2.03 4.43 0 1.68-1.28 3.09-3 3.46v1.31h8.84c1.74 0 3.16 1.57 3.16 3.5v5.4h-1.8v-3.11c-.08.07-.17.13-.25.2l-.09.07c-.1.09-.23.22-.37.35-.83.79-1.95 1.85-4.06 1.85-2.11 0-3.23-1.06-4.05-1.83-.72-.69-1.22-1.17-2.25-1.17s-1.53.48-2.24 1.15c-.83.79-1.95 1.85-4.06 1.85-2.11 0-3.23-1.06-4.05-1.84l-.12-.12c-.06-.05-.11-.1-.16-.15l-.46-.38c-.01-.01-.038-.03-.04-.03v3.15h-1.8v-5.4c0-1.93 1.42-3.5 3.16-3.5h8.84v-1.31c-1.72-.37-3-1.78-3-3.46 0-1.88.89-2.98 2.11-4.5.32-.4.68-.85 1.07-1.37l.72-.96.72.96ZM14.26 19.94c-.75 0-1.36.77-1.36 1.7h-.03v.2h.02c.11.04.19.07.26.11.09.04.17.08.25.13.04.02.11.05.18.1l.13.08c.08.05.16.11.23.16.04.03.14.11.14.11l.66.57c.06.05.12.11.17.16.75.71 1.41 1.33 2.8 1.33s2.05-.63 2.81-1.35c.82-.77 1.74-1.65 3.49-1.65 1.75 0 2.7.91 3.47 1.64.75.71 1.43 1.36 2.83 1.36 1.4 0 2.05-.61 2.8-1.33.17-.15.31-.29.46-.42l.09-.08c.17-.14.34-.28.53-.41.01-.01.041-.03.08-.06.19-.13.41-.24.62-.34l.11-.05c.038-.01.094-.028.1-.03v-.23c0-.94-.61-1.7-1.36-1.7H14.26ZM23.61 10c-1.14 1.42-1.71 2.13-1.71 3.38h-.01c0 .7.49 1.31 1.2 1.59v-.92h1.8v.92c.71-.29 1.2-.89 1.2-1.59 0-1.31-.54-1.97-1.62-3.29-.15-.18-.31-.38-.47-.58-.13.17-.27.33-.39.49Zm5.91-6.04c.31.14.61.32.88.53.26.2.5.43.71.69l.07.09-2.04 1.94-.08-.08c-.13-.12-.28-.24-.44-.37-.16-.12-.31-.23-.46-.32l-.1-.06 1.36-2.47.1.05Zm-9.68 2.12-.1.06a6.094 6.094 0 0 0-.9.69l-.08.08-2.04-1.94.07-.09a4.382 4.382 0 0 1 1.59-1.22l.1-.05 1.36 2.47Zm4.26-4.15c.35.01.68.05 1 .12l.11.02-.43 2.78h-.11c-.17-.02-.36-.03-.56-.03-.22 0-.41.01-.58.03v.01h-.11l-.43-2.78.11-.03c.33-.08.66-.12 1-.12Z" fill="currentColor"/></symbol><symbol fill="none" viewBox="0 0 48 48" id="business" xmlns="http://www.w3.org/2000/svg"><path d="M40.19 7.33c-.89-1.37-2.52-2.23-4.25-2.23H12.05c-1.73 0-3.35.85-4.25 2.23l-4.28 6.58.1.39c.56 2.13 2.12 3.91 4.26 4.87 1.09.49 2.27.74 3.5.74 2.41 0 4.66-.99 6.19-2.73.04-.05.09-.05.12-.05s.08 0 .12.05c1.52 1.73 3.77 2.73 6.17 2.73s4.65-.99 6.17-2.73c.08-.09.17-.09.25 0 1.53 1.73 3.79 2.73 6.19 2.73 3.69 0 6.88-2.31 7.76-5.61l.1-.39-4.28-6.58h.02ZM36.61 18.1c-1.89 0-3.66-.77-4.84-2.12-.37-.42-.91-.66-1.47-.66-.57 0-1.1.24-1.48.66-1.18 1.34-2.94 2.12-4.82 2.12-1.88 0-3.64-.77-4.82-2.12-.37-.42-.91-.66-1.47-.66-.57 0-1.1.24-1.47.66-1.19 1.35-2.95 2.12-4.84 2.12-.97 0-1.9-.2-2.76-.58-1.52-.68-2.65-1.88-3.15-3.32l3.83-5.89c.56-.87 1.61-1.41 2.74-1.41h23.9c1.12 0 2.17.54 2.74 1.41l3.83 5.89c-.8 2.31-3.17 3.9-5.9 3.9h-.02ZM39.1 40c0 .61-.49 1.1-1.1 1.1h-5.1V29.36c.66.24 1.3.5 1.89.81l.82-1.6c-6.4-3.26-16.81-3.26-23.21 0l.82 1.6c.59-.3 1.23-.56 1.89-.81V41.1h-5.1c-.61 0-1.1-.49-1.1-1.1V21h-1.8v19c0 1.6 1.3 2.9 2.9 2.9h28c1.6 0 2.9-1.3 2.9-2.9V21h-1.8v19h-.01Zm-8 1.1h-6.2V27.92c2.14.06 4.26.35 6.2.86V41.1ZM16.9 28.78c1.94-.52 4.06-.8 6.2-.86V41.1h-6.2V28.78Z" fill="currentColor"/></symbol><symbol fill="none" viewBox="0 0 48 48" id="charity" xmlns="http://www.w3.org/2000/svg"><path d="M39.06 36.94c-3.16-1.74-6.43-4.33-9.71-7.7a68.781 68.781 0 0 1-4.2-4.72c2.8-3.58 5.36-7.51 6.91-10.63 1.17-2.38 1.13-4.91-.13-6.95-.12-.19-.26-.36-.39-.54 1.71.81 3.07 1.94 3.95 3.37 1.53 2.48 1.6 5.69.16 8.59-1.13 2.3-3.18 5.4-5.63 8.49l1.41 1.12c2.56-3.24 4.63-6.37 5.83-8.81 1.71-3.46 1.62-7.33-.25-10.34-2.27-3.67-6.88-5.7-13.06-5.72h-.01c-6.09.02-10.69 2.05-12.96 5.71-1.86 3.01-1.96 6.87-.25 10.34 1.52 3.09 4.46 7.31 7.87 11.3l.68-.58-.68.59c1.36 1.59 2.74 3.08 4.11 4.45-2.83 2.7-5.6 4.9-8.27 6.53v-3.35l-2.74-.69c1.93-1.24 3.9-2.78 5.87-4.59l-1.22-1.33c-2.51 2.3-5 4.14-7.41 5.46l-2 1.1 5.7 1.44v5.04l1.33-.74c3.22-1.78 6.59-4.35 10.02-7.63 3.43 3.28 6.8 5.85 10.02 7.63l1.33.74v-5.04l5.7-1.44-2-1.1h.02ZM24 23.07c-2.62-3.39-4.99-7.06-6.44-9.98-.18-.37-.32-.74-.43-1.11.43-.35 2.65-1.93 6.87-1.95 4.23.02 6.45 1.61 6.87 1.95-.11.37-.24.74-.42 1.11-1.45 2.92-3.82 6.59-6.44 9.98H24Zm.02-18.17h.01c2.88.02 5.2 1.11 6.35 2.98.4.64.62 1.35.69 2.08-1.24-.73-3.54-1.7-7.02-1.72h-.12c-3.47.02-5.77.99-7.01 1.72.07-.73.29-1.43.69-2.07 1.15-1.87 3.46-2.95 6.41-2.98V4.9Zm9.54 33.18v3.35c-2.88-1.76-5.87-4.17-8.93-7.16a81.503 81.503 0 0 1-4.66-4.99c-3.32-3.88-6.17-7.96-7.63-10.92-1.43-2.91-1.37-6.12.16-8.6.88-1.43 2.24-2.55 3.95-3.36-.13.18-.27.35-.39.53-1.26 2.04-1.31 4.58-.13 6.95 1.63 3.29 4.38 7.48 7.35 11.2 1.52 1.91 3.13 3.73 4.77 5.41 2.76 2.84 5.52 5.15 8.24 6.9l-2.74.69h.01Z" fill="currentColor"/></symbol><symbol fill="none" viewBox="0 0 48 48" id="chat" xmlns="http://www.w3.org/2000/svg"><path d="M20.09 21.4c.72.03 1.58-.34 2.23-.99l1.27 1.28c-.99.98-2.2 1.51-3.44 1.51h-.1c-1.2-.03-2.31-.56-3.21-1.54-.54-.58-1.23-.89-1.97-.9h-.04c-.77 0-1.55.34-2.15.94l-1.27-1.28c.97-.96 2.22-1.44 3.48-1.46 1.22.02 2.37.54 3.26 1.48.58.63 1.22.95 1.93.97l.01-.01ZM29 27c0 .72.59 1.31 1.31 1.31.72 0 1.31-.59 1.31-1.31 0-.72-.59-1.31-1.31-1.31-.72 0-1.31.59-1.31 1.31Zm5.5 1.31c.72 0 1.31-.59 1.31-1.31 0-.72-.59-1.31-1.31-1.31-.72 0-1.31.59-1.31 1.31 0 .72.59 1.31 1.31 1.31ZM40 27c0-.72-.59-1.31-1.31-1.31-.72 0-1.31.59-1.31 1.31 0 .72.59 1.31 1.31 1.31.72 0 1.31-.59 1.31-1.31Zm-4.29-10.19-.21 1.79c4.33.5 7.59 4.18 7.59 8.55 0 4.01-3.84 8.57-7.7 10.77l.04-2.16H34.48c-2.81 0-5.45-1.38-7.06-3.7-1.34-1.92-1.83-4.28-1.37-6.64.64-3.27 3.25-5.95 6.5-6.66l.87-.19-.18-.87c-1.22-5.86-5.99-10.56-11.86-11.71-4.56-.89-9.21.27-12.73 3.18-3.53 2.91-5.55 7.2-5.55 11.76 0 7.71 7.71 16.2 14.92 19.29l1.28.55-.08-4.62c1.43-.08 2.81-.35 4.13-.81.45-.16.93-.35 1.44-.58l-.74-1.64a13.49 13.49 0 0 1-5.74 1.26h-.92l.06 3.58C11.28 34.74 4.91 27.38 4.91 20.94c0-4.03 1.78-7.81 4.89-10.37 3.11-2.56 7.21-3.58 11.25-2.8 4.89.95 8.91 4.71 10.24 9.49-3.52 1.13-6.28 4.17-6.99 7.84-.55 2.85.04 5.7 1.67 8.02 1.78 2.55 4.59 4.17 7.65 4.43l-.06 3.24 1.28-.55c4.87-2.09 10.08-7.84 10.08-13.07s-3.95-9.72-9.19-10.33l-.02-.03Z" fill="currentColor"/></symbol><symbol fill="none" viewBox="0 0 48 48" id="checklist" xmlns="http://www.w3.org/2000/svg"><path d="m32.11 18.04-2.82-2.82 1.27-1.27 2 2c.79-1.28 2.28-3.52 3.98-5.23l1.27 1.27c-2.3 2.3-4.26 5.81-4.28 5.85a.89.89 0 0 1-.66.45h-.12a.9.9 0 0 1-.64-.26v.01Zm5.68 15.04a4.565 4.565 0 0 1 .75 5.28l-.81 1.55a9.083 9.083 0 0 1-5.37 4.48c-.9.28-1.82.42-2.74.42-1.46 0-2.9-.35-4.23-1.05l-.13-.07a9.274 9.274 0 0 1-4.9-6.77L18.7 26.68l.63-.28c2.21-1 4.79-.16 5.98 1.97l1.17 2.1 4.74-8.87c.87-1.67 2.95-2.31 4.62-1.44.81.42 1.41 1.14 1.68 2.01.27.87.19 1.8-.24 2.61l-2.71 4.97 3.19 3.34.03-.01Zm-1.3 1.24-4.1-4.29 3.33-6.11c.19-.37.23-.81.1-1.23-.13-.41-.41-.75-.8-.95a1.62 1.62 0 0 0-2.19.68l-6.3 11.78-2.78-4.96a2.838 2.838 0 0 0-3.02-1.41l1.43 8.8a7.46 7.46 0 0 0 3.95 5.46l.13.07c3.58 1.87 8.02.49 9.9-3.09l.81-1.55c.55-1.05.37-2.34-.45-3.2h-.01Zm7.19-24.89c-1.43-1.5-3.35-2.33-5.4-2.33h-8.56c-4.2 0-7.62 3.54-7.62 7.9 0 2.1.79 4.08 2.22 5.57 1.14 1.2 2.6 1.97 4.21 2.23l.28-1.78c-1.22-.19-2.32-.78-3.19-1.69-1.11-1.15-1.72-2.69-1.72-4.33 0-3.36 2.61-6.1 5.82-6.1h8.56c1.55 0 3.01.63 4.1 1.77 1.11 1.15 1.72 2.69 1.72 4.33 0 2.91-1.97 5.42-4.68 5.99l.37 1.76c3.54-.74 6.12-4 6.12-7.75 0-2.1-.79-4.08-2.22-5.57h-.01ZM9.9 15.5c0 1.88-1.53 3.4-3.4 3.4-1.87 0-3.4-1.52-3.4-3.4s1.53-3.4 3.4-3.4c1.87 0 3.4 1.52 3.4 3.4Zm-1.8 0c0-.88-.72-1.6-1.6-1.6-.88 0-1.6.72-1.6 1.6 0 .88.72 1.6 1.6 1.6.88 0 1.6-.72 1.6-1.6Zm7.9 3.9c-2.15 0-3.9-1.75-3.9-3.9s1.75-3.9 3.9-3.9 3.9 1.75 3.9 3.9-1.75 3.9-3.9 3.9Zm2.1-3.9a2.1 2.1 0 1 0-4.2 0 2.1 2.1 0 0 0 4.2 0Z" fill="currentColor"/></symbol><symbol fill="none" viewBox="0 0 48 48" id="civil-rights-social-action-advocacy" xmlns="http://www.w3.org/2000/svg"><path d="M31.31 6.72a2.158 2.158 0 0 0-2-1.33 2.169 2.169 0 0 0-1.56.67l-.08.07c-.9.85-3.65 3.42-7.29 5.12-1 .47-2.01.91-3.07 1.37-6.43 2.82-12 5.28-10.92 11.83l-2.88.56.34 1.77 2.96-.57c.02.07.04.16.07.23.2.58.46 1.11.75 1.59 1.92 3.14 5.42 3.78 10.08 3.78.42 0 .85 0 1.28-.02l1.9 9.31h-2.67c-.93 0-1.74-.6-2-1.46l-1.57-6.22-1.75.44 1.58 6.26c.5 1.66 2 2.78 3.74 2.78h4.87l-2.27-11.15c.14 0 .29 0 .43-.01 1.26-.04 2.54-.08 3.83-.08 3.52 0 5.73.61 7.51 1.11.58.16 1.13.31 1.68.43.15.04.31.05.47.05.59 0 1.16-.25 1.56-.68.41-.43.62-1 .58-1.6-.22-3.92-.96-8.53-2.14-13.33-1.05-4.26-2.24-8.04-3.44-10.91l.01-.01ZM17.72 30c-4.93 0-7.25-.79-8.55-2.92-.23-.37-.42-.79-.59-1.25-.12-.33-.22-.68-.3-1.05-1.05-4.55 1.4-6.65 7.37-9.43l2.98 14.64c-.31 0-.62.01-.92.01h.01Zm17.29 1.32c-.07.07-.16.11-.25.11h-.08c-.52-.12-1.04-.27-1.59-.42-1.88-.52-4.23-1.17-7.99-1.17-1.3 0-2.61.04-3.88.08-.25 0-.49.01-.74.02l-3.13-15.37c.25-.11.5-.22.76-.34 1.01-.44 2.03-.89 3.05-1.36 3.9-1.82 6.8-4.54 7.76-5.44l.18-.17c.06-.04.47-.12.58.14 1.17 2.79 2.33 6.47 3.36 10.64 1.15 4.69 1.88 9.19 2.09 13 0 .1-.03.19-.09.26l-.03.02Zm4.11-14.56 3.31-1.32.04.09c.16.35.28.73.37 1.11.09.4.14.77.16 1.16v.1l-3.55.26v-.09c-.05-.19-.08-.39-.13-.6-.05-.23-.11-.43-.16-.62l-.03-.09h-.01Zm-.1 5.56 3.43.97-.02.1c-.1.39-.23.77-.4 1.13-.16.34-.35.67-.57.99l-.06.08-2.97-1.96.05-.08c.1-.18.19-.36.28-.56.09-.2.17-.39.24-.57l.03-.09-.01-.01Zm.54-11.49-2.65 2.38-.07-.06c-.14-.13-.29-.27-.46-.41-.17-.14-.34-.27-.5-.38l-.08-.05 1.81-3.07.09.05c.33.18.65.4.95.64.31.25.6.53.85.84l.06.08v-.02Z" fill="currentColor"/></symbol><symbol fill="none" viewBox="0 0 48 48" id="community" xmlns="http://www.w3.org/2000/svg"><path d="M14.14 10.56c3.19-2.63 7.4-3.68 11.53-2.88 5.32 1.04 9.63 5.3 10.74 10.6l.18.87-.87.19c-2.89.63-5.21 3.01-5.78 5.92-.41 2.1.02 4.2 1.22 5.9a7.667 7.667 0 0 0 6.28 3.29h.95l-.03 1.88c3.4-1.99 6.74-6 6.74-9.53 0-3.89-2.9-7.15-6.75-7.6l.21-1.79c4.75.55 8.34 4.64 8.34 9.38 0 4.74-4.72 9.95-9.12 11.84l-1.28.55.05-2.97a9.478 9.478 0 0 1-6.86-4.01c-1.34-1.91-1.89-4.22-1.61-6.56a6.013 6.013 0 0 0-5.06-2.73c-2.88 0-5.32 1.95-5.95 4.75l-1.76-.39c.81-3.63 3.98-6.16 7.7-6.16 2.12 0 4.14.87 5.6 2.34.99-2.63 3.16-4.75 5.83-5.63-1.21-4.22-4.78-7.53-9.12-8.38-3.61-.7-7.26.21-10.04 2.5a11.949 11.949 0 0 0-4.37 9.26c0 5.72 5.61 12.24 11.1 15.16l-.05-3.16h.92c1.39 0 2.73-.22 3.98-.66.39-.13.78-.29 1.15-.46l.74 1.64a13.523 13.523 0 0 1-4.95 1.26l.07 4.21-1.28-.55C16.08 35.85 9.12 28.18 9.12 21.21c0-.42.03-.84.07-1.25-3.62.6-6.29 3.71-6.29 7.4 0 3.46 3.26 7.38 6.6 9.35l-.04-1.84h.92c1.22.04 2.33-.26 3.39-.79l.81 1.61c-1.03.52-2.14.83-3.28.94l.06 2.94-1.28-.55C5.74 37.16 1.1 32.08 1.1 27.36s3.53-8.7 8.22-9.25l.16-.02a13.73 13.73 0 0 1 4.66-7.53Zm8.87 1.54c2.15 0 3.9 1.75 3.9 3.9s-1.75 3.9-3.9 3.9-3.9-1.75-3.9-3.9 1.75-3.9 3.9-3.9Zm.01 1.8a2.1 2.1 0 1 0 0 4.2 2.1 2.1 0 0 0 0-4.2Z" fill="currentColor"/></symbol><symbol fill="none" viewBox="0 0 48 48" id="community-building" xmlns="http://www.w3.org/2000/svg"><path d="M28.78 18.88c0-2.64-2.15-4.79-4.78-4.79-2.63 0-4.78 2.15-4.78 4.79s2.15 4.78 4.78 4.78c2.63 0 4.78-2.15 4.78-4.78Zm-7.76 0c0-1.65 1.34-2.98 2.98-2.98s2.98 1.34 2.98 2.98-1.34 2.98-2.98 2.98-2.98-1.34-2.98-2.98Zm-8.96 6.59a4.28 4.28 0 0 0 4.27-4.27 4.28 4.28 0 0 0-4.27-4.27 4.28 4.28 0 0 0-4.27 4.27 4.28 4.28 0 0 0 4.27 4.27Zm0-6.74c1.36 0 2.47 1.11 2.47 2.47s-1.11 2.47-2.47 2.47-2.47-1.11-2.47-2.47 1.11-2.47 2.47-2.47Zm28.15 2.47a4.28 4.28 0 0 0-4.27-4.27 4.28 4.28 0 0 0-4.27 4.27 4.28 4.28 0 0 0 4.27 4.27 4.28 4.28 0 0 0 4.27-4.27Zm-6.74 0c0-1.36 1.11-2.47 2.47-2.47s2.47 1.11 2.47 2.47-1.11 2.47-2.47 2.47-2.47-1.11-2.47-2.47Zm2.78 5.99c-2.48-.66-4.46-.1-5.95 1.06-1.63-1.9-3.81-2.97-6.3-2.97-2.49 0-4.67 1.07-6.3 2.97-1.49-1.16-3.46-1.72-5.95-1.06-4.9 1.3-6.65 6.14-6.65 10.24V41h1.8v-3.57c0-1.66.38-7.2 5.31-8.5 1.96-.53 3.4-.06 4.44.78-.67 1.13-1.2 2.46-1.53 3.95-.45 2 .57 2.93 1.03 3.23 1.01.67 2.46.59 3.53-.18 1.07-.77 1.49-2.06 1.11-3.44-.35-1.3-.96-2.62-1.82-3.72 1.19-1.45 2.85-2.47 5.01-2.47 2.16 0 3.82 1.01 5.01 2.47-.86 1.1-1.47 2.42-1.82 3.72-.37 1.38.04 2.67 1.11 3.44s2.52.84 3.53.18c.46-.3 1.49-1.23 1.03-3.23-.34-1.49-.86-2.81-1.53-3.95 1.04-.83 2.48-1.3 4.44-.78 4.93 1.31 5.31 6.84 5.31 8.5V41h1.8v-3.57c0-4.1-1.75-8.94-6.65-10.24h.04Zm-17.18 6.55c.22.83-.11 1.28-.43 1.51-.45.33-1.1.39-1.49.13-.41-.27-.37-.88-.27-1.33.22-.98.57-1.98 1.05-2.9.64.99.98 2.03 1.13 2.59h.01Zm11.78 1.65c-.38.25-1.03.19-1.49-.13-.32-.23-.66-.68-.43-1.51.15-.56.49-1.6 1.13-2.59.48.92.83 1.92 1.05 2.9.1.46.14 1.06-.27 1.33h.01Zm13.12-19.18-.87 1.58L24.03 7.3 4.9 17.75l-.86-1.58L24.03 5.25l19.94 10.96Z" fill="currentColor"/></symbol><symbol fill="none" viewBox="0 0 48 48" id="competitions" xmlns="http://www.w3.org/2000/svg"><path d="M29.49 14.21c-2.16-.8-3.86-2.5-4.66-4.66l-.55-1.48c-.09-.25-.45-.25-.55 0l-.55 1.48c-.8 2.16-2.5 3.86-4.66 4.66l-1.48.55c-.25.09-.25.45 0 .55l1.48.55c2.16.8 3.86 2.5 4.66 4.66l.55 1.48c.09.25.45.25.55 0l.55-1.48c.8-2.16 2.5-3.86 4.66-4.66l1.48-.55c.25-.09.25-.45 0-.55l-1.48-.55Zm-5.48 4a9.574 9.574 0 0 0-3.18-3.18 9.667 9.667 0 0 0 3.18-3.18 9.667 9.667 0 0 0 3.18 3.18 9.667 9.667 0 0 0-3.18 3.18Zm15.9 21.01c-2.7-3.7-5.05-8.44-6.98-14.09-.2-.6-.41-1.21-.6-1.82l-.42-1.33-1.04.93c-1.5 1.34-3.35 2.21-5.35 2.51-.74.11-1.54.13-2.28.08-2.02-.15-3.93-.89-5.53-2.14a10.23 10.23 0 0 1-4.01-8.15c0-5.69 4.63-10.32 10.32-10.32s10.32 4.63 10.32 10.32c0 1.8-.47 3.57-1.36 5.12l1.56.9c1.04-1.82 1.6-3.9 1.6-6.01 0-6.68-5.44-12.12-12.12-12.12-6.68 0-12.12 5.44-12.12 12.12 0 3.78 1.72 7.27 4.71 9.58a12.01 12.01 0 0 0 5.91 2.45c.2.57.41 1.15.62 1.73l.09.23.21.54c-1.77 4.56-3.85 8.67-6.07 11.99l-1.91-4.04-3.86.75c2.03-3.16 3.86-6.92 5.43-11.21l-1.69-.62c-1.83 4.99-4 9.23-6.45 12.6l-1.34 1.85 6.88-1.34 2.62 5.56.89-1.23c2.38-3.28 4.54-7.27 6.46-11.89 1.93 4.64 4.1 8.63 6.46 11.89l.89 1.23 2.62-5.56 6.89 1.34-1.35-1.85Zm-6.58-1.52-1.91 4.04c-2.27-3.39-4.35-7.53-6.2-12.33-.11-.28-.22-.56-.32-.84l-.08-.22c-.12-.34-.25-.68-.37-1.02.45-.02.9-.06 1.33-.12a12.1 12.1 0 0 0 5.24-2.11c.07.2.14.41.21.61 1.69 4.93 3.7 9.2 5.98 12.74l-3.87-.75h-.01Z" fill="currentColor"/></symbol><symbol fill="none" viewBox="0 0 48 48" id="creative" xmlns="http://www.w3.org/2000/svg"><path d="M41.95 18.97c-.88-.88-2.41-1.2-3.64-.11l-9.54 8.51c-.84-1.21-.76-2.62 1.92-5.79 2.7-3.21 3.42-7.52 1.81-10.96C31.54 8.56 28.9 5.1 22 5.1 12.13 5.1 4.1 13.13 4.1 23c0 7.09 4.2 13.53 10.69 16.39l.73-1.65A16.108 16.108 0 0 1 5.91 23c0-8.88 7.22-16.1 16.1-16.1 4.37 0 7.52 1.59 8.87 4.48 1.29 2.77.66 6.4-1.56 9.04-3.3 3.92-3.36 6.13-1.88 8.15l-5.86 5.22c-.87.18-1.7.6-2.38 1.28-1.22 1.22-1.42 2.63-1.6 3.88-.16 1.1-.29 2.06-1.09 2.86L15.32 43l1.65.33c1.2.24 2.42.42 3.6.42 1.92 0 3.76-.49 5.29-2.02.67-.67 1.1-1.51 1.27-2.38l14.94-16.74c1.08-1.23.76-2.76-.12-3.64Zm-16.09 16.1a4.69 4.69 0 0 0-1.78-1.1l1.64-1.47c.55.32 1.08.69 1.54 1.15.46.46.83.99 1.15 1.54l-1.47 1.64a4.69 4.69 0 0 0-1.1-1.78l.02.02Zm-1.28 5.38c-1.33 1.33-3.04 1.74-5.88 1.34.43-.87.56-1.77.68-2.59.16-1.1.29-2.06 1.09-2.86 1.13-1.13 2.98-1.14 4.11 0a2.915 2.915 0 0 1 0 4.11Zm16.14-19.03L29.68 33.79c-.33-.5-.71-.97-1.14-1.4-.43-.43-.9-.81-1.4-1.14l12.37-11.04c.56-.49 1.04-.09 1.17.04.1.1.55.6.04 1.17ZM22.5 16.9c1.88 0 3.4-1.52 3.4-3.4s-1.53-3.4-3.4-3.4c-1.87 0-3.4 1.52-3.4 3.4s1.53 3.4 3.4 3.4Zm0-5c.88 0 1.6.72 1.6 1.6 0 .88-.72 1.6-1.6 1.6-.88 0-1.6-.72-1.6-1.6 0-.88.72-1.6 1.6-1.6Zm-9 10c1.88 0 3.4-1.52 3.4-3.4s-1.53-3.4-3.4-3.4c-1.87 0-3.4 1.52-3.4 3.4s1.53 3.4 3.4 3.4Zm0-5c.88 0 1.6.72 1.6 1.6 0 .88-.72 1.6-1.6 1.6-.88 0-1.6-.72-1.6-1.6 0-.88.72-1.6 1.6-1.6Zm0 15c1.88 0 3.4-1.53 3.4-3.4 0-1.87-1.53-3.4-3.4-3.4a3.41 3.41 0 0 0-3.4 3.4c0 1.87 1.53 3.4 3.4 3.4Zm0-5c.88 0 1.6.72 1.6 1.6 0 .88-.72 1.6-1.6 1.6-.88 0-1.6-.72-1.6-1.6 0-.88.72-1.6 1.6-1.6Z" fill="currentColor"/></symbol><symbol fill="none" viewBox="0 0 48 48" id="crime-and-legal" xmlns="http://www.w3.org/2000/svg"><path d="M43.7 30.25 30.96 19.13c1.19-1.25 2.45-2.64 3.21-3.57a3.66 3.66 0 0 0-.28-4.97l-4.09-4a3.69 3.69 0 0 0-4.93-.21c-1.73 1.42-4.05 3.65-5.14 4.75-1.44 1.44-3.68 3.83-4.8 5.21a3.66 3.66 0 0 0 .28 4.97l4.09 4c.71.7 1.64 1.05 2.58 1.05.83 0 1.66-.28 2.35-.84 1.05-.86 2.31-2.02 3.39-3.05l11.12 12.74c.64.73 1.56 1.17 2.53 1.2h.12c.93 0 1.83-.37 2.49-1.03a3.522 3.522 0 0 0-.17-5.14l-.01.01Zm-20.62-6.12c-.75.62-1.84.57-2.53-.1l-4.09-4a1.87 1.87 0 0 1-.14-2.54c1.09-1.33 3.28-3.67 4.68-5.07 1.07-1.07 3.33-3.25 5.01-4.63.35-.29.78-.43 1.21-.43.48 0 .95.18 1.32.54l4.09 4c.7.69.77 1.78.15 2.54-1.09 1.33-3.28 3.67-4.68 5.08-1.07 1.07-3.33 3.25-5.01 4.63l-.01-.02Zm19.52 9.98c-.34.34-.8.53-1.27.5-.48-.02-.92-.22-1.24-.59L28.91 21.21c.17-.16.32-.32.45-.45l.34-.34L42.51 31.6c.36.32.57.75.59 1.24.02.48-.16.93-.5 1.27ZM29.42 38.3l-1.62-4.55c-.57-1.61-1.97-2.65-3.57-2.65H11.68c-1.59 0-2.98 1.03-3.56 2.63L6.47 38.3h22.96-.01ZM9.8 34.34c.32-.88 1.05-1.44 1.87-1.44h12.55c.82 0 1.56.57 1.87 1.45l.77 2.15H9.02l.78-2.16ZM5 40.1h25.9v1.8H5v-1.8Zm1.88-10.11-2.22-1.63.05-.1c.17-.28.38-.54.61-.77.24-.24.5-.44.77-.61l.09-.06 1.63 2.23-.09.07a6.566 6.566 0 0 0-.78.79l-.07.08h.01Zm3.57-1.47-.77-2.65.1-.04c.31-.12.64-.2.98-.24.32-.04.65-.04.97-.01h.11l-.07 2.77h-.11c-.17 0-.36.02-.56.05-.2.03-.38.06-.54.1l-.11.02Zm-4.69 5.42L3 34.01v-.11c-.04-.32-.04-.65 0-.97.04-.33.12-.66.24-.98l.04-.1 2.65.77-.02.11c-.04.16-.07.34-.1.54s-.04.39-.05.56v.11Z" fill="currentColor"/></symbol><symbol fill="none" viewBox="0 0 48 48" id="daf-easy" xmlns="http://www.w3.org/2000/svg"><path d="m37.31 18.59-8.14-7.06-1.58.87c-.48.26-.88.63-1.2 1.05-.17-.33-.38-.64-.65-.91l-1.32-1.32-3.87 2.21.77-3.77c.31-1.12.09-2.3-.59-3.24a3.767 3.767 0 0 0-2.91-1.56l-1.87-.08-2.56 8.05c-.12.36-1.06 3.48-.52 5.88-.12.07-.23.14-.34.23-.63.5-2.11 1.85-2.87 3.76-2.82 2.32-4.54 6.14-2.03 9.48 3.49 4.65 17.86 12.42 18.47 12.75l.85-1.58c-.15-.08-14.63-7.91-17.89-12.25-2.49-3.32 1.05-6.46 1.79-7.06.43-.35 1.07-.4 1.49-.17l6.62 4.71c.13.08.23.18.33.29l.02.02c.18.21.3.47.34.76.05.44-.1.88-.41 1.2-.47.47-1.2.56-1.77.22l-4.11-2.46-.93 1.54 4.11 2.46c1.28.77 2.91.57 3.97-.49.71-.71 1.05-1.69.93-2.68 0-.04-.02-.07-.02-.1.7-.09 1.37-.39 1.89-.92.62-.62.96-1.43.96-2.3 0-1.14-.58-2.17-1.51-2.74l-2.62-1.86 4.94-3.09c.4-.25.72-.58 1-.94.14.26.31.52.52.75l2.67 2.99c-3.31 2.12-3.29 6.22-3.29 6.41l1.8-.02c0-.16 0-3.93 3.28-5.29l1.17-.49-4.27-4.8a1.96 1.96 0 0 1-.48-1.65c.1-.6.47-1.12 1.01-1.41l.48-.27 7.19 6.24c.55.48.86 1.17.86 1.9v13.22h1.8V21.85c0-1.25-.54-2.44-1.49-3.25l-.02-.01Zm-22.21-5.2 2.15-6.74.5.02c.61.03 1.17.32 1.53.82.36.49.47 1.11.3 1.76l-1.11 5.38-1.62.93c-.75.43-1.4.98-1.94 1.65l-.37.46c-.13-1.48.27-3.29.58-4.26l-.02-.02Zm7.36 12.74c0 .38-.15.75-.43 1.02-.42.42-1.04.54-1.58.32h-.02c-.15-.14-.3-.27-.47-.38l-6.65-4.72a3.11 3.11 0 0 0-1.21-.38c.57-.79 1.22-1.36 1.56-1.63.42-.34 1.07-.39 1.48-.17l6.62 4.7c.44.27.71.74.71 1.24h-.01Zm2.57-10.68c-.07.61-.41 1.14-.92 1.46l-5.58 3.48-2.44-1.73-.06-.03.25-.31c.4-.49.89-.9 1.44-1.22l6.38-3.64.35.35c.43.43.64 1.03.57 1.63l.01.01Zm3.73-8.52c-.28-.1-.54-.18-.77-.25l.75-3.69c.45.06.9.18 1.33.34.45.17.85.37 1.23.61l-1.83 3.29c-.22-.1-.46-.21-.72-.3h.01Zm1.72 2.05 2.85-2.46c.33.34.62.71.87 1.1.24.38.44.79.59 1.22l-3.45 1.49a9.145 9.145 0 0 0-.85-1.35h-.01Zm-5.92-1.1L22.9 4.5c.39-.22.81-.4 1.24-.54.45-.14.91-.23 1.38-.27l.56 3.72c-.24.05-.49.12-.76.2-.27.09-.53.18-.76.27Z" fill="currentColor"/></symbol><symbol fill="none" viewBox="0 0 48 48" id="daf-favorite-causes" xmlns="http://www.w3.org/2000/svg"><path d="M13.94 10.81c.55.08.92.68.83 1.34-.09.66-.6 1.13-1.14 1.04-.55-.08-.92-.68-.83-1.34.09-.66.6-1.13 1.14-1.04Zm-4.41 6.78c.41.06.72.44.72.89h1.8c0-1.33-.97-2.48-2.26-2.67-1.05-.16-1.8-.58-2.29-1.3-.76-1.13-.72-2.71-.62-3.61h4.89l.25-.51s1.74-3.52 5.84-2.89c2.44.37 3.89 2.11 4.33 5.17.52 3.64 1.35 6.05 1.96 7.43-2.83-.11-4.4-.73-4.4-4.17h-1.8c0 5.99 4.44 5.99 7.68 5.99h1.66l-.91-1.4c-.02-.02-1.6-2.5-2.4-8.11-.55-3.83-2.62-6.21-5.84-6.7-3.9-.59-6.42 1.72-7.45 3.38H5.42l-.17.69c-.03.14-.79 3.41.77 5.72.78 1.15 1.96 1.85 3.52 2.08l-.01.01Zm34.41 2.51-2.55 17.07a4.404 4.404 0 0 1-4.33 3.73H12.51c-2.19 0-4.01-1.57-4.33-3.73L5.62 20.1h11.96l.55 8h13.12l.42-6.2h-1.82l-.27-.34c-4.45-5.6-4.27-10.59-1.8-12.64 1.18-.96 2.71-1.24 4.2-.78 1.35.42 2.5 1.4 3.23 2.74 1.11-.93 2.45-1.38 3.83-1.27 1.59.12 2.99 1.02 3.74 2.39.88 1.62.6 3.82-.66 5.96h-2.16c1.4-1.86 1.92-3.87 1.25-5.1-.47-.85-1.3-1.38-2.3-1.46-1.21-.09-2.41.5-3.28 1.64l-1.07 1.4-.51-1.68c-.44-1.46-1.39-2.51-2.6-2.89-.91-.28-1.83-.11-2.53.45-1.7 1.41-1.62 5.29 1.81 9.79h13.2l.01-.01Zm-2.09 1.8h-8.37l-.42 6.2h5.73v1.8h-5.86l-.5 7.27-1.8-.12.49-7.15H18.25l.49 7.07-1.8.12-.49-7.2h-5.66v-1.8h5.54l-.43-6.2H7.71l2.25 15c.19 1.27 1.27 2.2 2.55 2.2h24.55c1.27 0 2.36-.95 2.55-2.2l2.24-15v.01Z" fill="currentColor"/></symbol><symbol fill="none" viewBox="0 0 48 48" id="daf-save-money" xmlns="http://www.w3.org/2000/svg"><path d="M24.91 24.17v1.4c.66.1 1.33.29 1.96.62l.13 2.1c-.81-.56-1.77-.85-2.54-.85-.9 0-1.57.41-1.57 1.12 0 .77.81 1.18 1.86 1.75 1.34.73 2.68 1.54 2.68 3.36 0 1.62-1.05 2.68-2.52 3.01v1.5H23.2v-1.4c-.8-.08-1.6-.31-2.31-.66l-.11-2.14c.84.57 1.86.94 2.76.94.97 0 1.68-.43 1.68-1.25 0-.53-.32-1.05-1.86-1.82-1.92-.97-2.68-1.9-2.68-3.25 0-1.51.97-2.63 2.52-2.97v-1.46h1.71Zm4.82-19.85h-1.8v13.21h1.8V4.32Zm-9.66 9.2h-1.8v4.01h1.8v-4.01ZM42.61 35.1h-4.39v1.8h3.17l1.28 3.23h-8.6c1.87-2.31 2.93-5.19 2.93-8.2 0-6.87-5.35-12.5-12.1-12.97v-9.6h-1.8v11.37h.9c6.18 0 11.2 5.02 11.2 11.2 0 3.11-1.31 6.08-3.58 8.2H16.39a11.178 11.178 0 0 1-3.59-8.2c0-5.21 3.53-9.69 8.58-10.89l-.42-1.75c-5.87 1.4-9.97 6.6-9.97 12.64 0 3.02 1.06 5.9 2.93 8.2H5.33l1.28-3.23h3.17v-1.8H5.39l-2.72 6.83h42.65L42.6 35.1h.01Z" fill="currentColor"/></symbol><symbol fill="none" viewBox="0 0 48 48" id="daf-select-portfolio" xmlns="http://www.w3.org/2000/svg"><path d="M37.24 12.92C33.28 10.42 28.7 9.1 24 9.1c-4.7 0-9.28 1.32-13.24 3.82l-.76.48 4.17 6.6.76-.48c1.67-1.05 3.53-1.81 5.52-2.25.46-.1.9-.18.91-.18l-.31-1.77s-.49.09-.98.19c-1.9.41-3.69 1.09-5.33 2.02l-2.25-3.55c3.49-2.02 7.45-3.08 11.51-3.08s8.02 1.06 11.51 3.08l-2.25 3.55c-2.82-1.59-6-2.43-9.27-2.43l-.81 1.74c-1.23 2.61-5.22 11.32-5.22 14.03 0 3.33 2.71 6.04 6.04 6.04s6.04-2.71 6.04-6.04c0-2.68-3.91-11.23-5.18-13.93 2.92.15 5.75 1.03 8.22 2.59l.76.48 4.17-6.6-.76-.48-.01-.01ZM24 35.1c-2.34 0-4.24-1.9-4.24-4.24 0-1.37 1.67-5.88 4.24-11.5 2.57 5.62 4.24 10.14 4.24 11.5 0 2.34-1.9 4.24-4.24 4.24ZM45.9 34h-1.8c0-5.92-2.58-11.5-7.09-15.31l1.16-1.37a21.815 21.815 0 0 1 7.73 16.69V34ZM9.83 17.31l1.16 1.37A19.99 19.99 0 0 0 3.9 33.99H2.1c0-6.45 2.82-12.53 7.73-16.69v.01ZM24 29.69c.72 0 1.31.59 1.31 1.31 0 .72-.59 1.31-1.31 1.31-.72 0-1.31-.59-1.31-1.31 0-.72.59-1.31 1.31-1.31Z" fill="currentColor"/></symbol><symbol fill="none" viewBox="0 0 48 48" id="daf-tax-receipt" xmlns="http://www.w3.org/2000/svg"><path d="M42.24 26.11c-1.09 9.09-4.48 14.19-4.62 14.4l-.27.4H17.83l.23-1.09c.79-3.71-.84-4.73-1.53-5.17-.18-.12-.33-.21-.46-.37-.31-.39-.37-.92-.17-1.33.19-.4.59-.64 1.04-.64h3.98c2.56 0 4.69-1.92 5.03-4.4H13.92c-.83 0-1.58.49-1.91 1.25l-6.2 13.23-1.63-.76 6.19-13.21c.61-1.39 2-2.31 3.55-2.31H27.8v1.1c0 3.8-3.08 6.9-6.87 6.9h-2.26c1.13 1.23 1.57 2.91 1.33 5h16.37c.78-1.33 3.22-5.97 4.09-13.21.79-6.61.83-13.4.69-18.33l-3.67 1.77-4.46-2.51-4.49 2.53-4.49-2.53-4.45 2.51-3.64-1.73c.16 4.63.26 10.5-.64 16.53l-1.78-.27c.98-6.52.74-12.92.57-17.6l-.05-1.48 1.34.55 4.13 1.96 4.52-2.55 4.49 2.53 4.49-2.53 4.52 2.55 5.31-2.56.05 1.38c.19 5.05.22 12.62-.66 19.98v.01ZM31 14.1H21v1.8h10v-1.8Zm4.24 2.36c.64 0 1.28-.65 1.42-1.46.14-.8-.26-1.46-.91-1.46s-1.28.65-1.42 1.46c-.14.8.26 1.46.91 1.46ZM21 21.9h10v-1.8H21v1.8Zm14.24.56c.64 0 1.28-.65 1.42-1.46.14-.8-.26-1.46-.91-1.46s-1.28.65-1.42 1.46c-.14.8.26 1.46.91 1.46Z" fill="currentColor"/></symbol><symbol fill="none" viewBox="0 0 48 48" id="daf-track" xmlns="http://www.w3.org/2000/svg"><path d="m28.4 22.32-15.53 7.26c-1.23.58-2.02 1.91-1.88 3.17.11.95.75 1.67 1.67 1.86L19.28 36l2.28 6.37c.31.87 1.08 1.4 2.02 1.4h.05c1.27-.03 2.48-.99 2.88-2.29l5.07-16.38c.3-.98.07-1.95-.6-2.53-.67-.59-1.67-.68-2.59-.25h.01Zm1.47 2.25L24.8 40.95c-.2.63-.77 1.02-1.2 1.03-.22 0-.3-.1-.34-.21l-2.62-7.32-7.61-1.6c-.12-.02-.23-.07-.25-.3-.05-.44.25-1.05.85-1.33l15.53-7.26c.14-.07.28-.1.4-.1.1 0 .19.03.25.08.13.11.16.36.07.64l-.01-.01Zm2.9-11.88c-1.09-.12-2.16.28-2.85 1.08-.69.81-.97 1.87-.79 3 .24 1.47 1.38 3.73 5.42 6.12l.46.27.46-.27c4.04-2.39 5.18-4.65 5.42-6.12.18-1.13-.09-2.19-.79-3-.7-.8-1.76-1.2-2.87-1.08-.84.1-1.61.47-2.22 1.07-.62-.6-1.39-.98-2.23-1.08l-.01.01Zm3.03 2.99c.36-.69.96-1.12 1.63-1.2.52-.06.99.11 1.3.47.34.4.47.93.38 1.53-.14.86-.87 2.56-4.1 4.58-3.24-2.02-3.96-3.72-4.1-4.58-.1-.6.03-1.13.38-1.53.31-.35.78-.53 1.29-.47.67.07 1.27.51 1.64 1.21l.8 1.48.79-1.48-.01-.01Zm2.2-5.54a5.054 5.054 0 0 0 3-3 5.054 5.054 0 0 0 3 3 5.055 5.055 0 0 0-3 3 5.055 5.055 0 0 0-3-3ZM25.07 21.52a10.32 10.32 0 0 1-.62-7.05c.93-3.52 3.69-6.32 7.18-7.32 1.79-.53 3.71-.54 5.55-.05l-.46 1.74a8.478 8.478 0 0 0-4.58.04 8.59 8.59 0 0 0-5.43 11.88l-1.63.76h-.01Zm19.48-1.69c-1.23 4.57-5.43 7.72-10.06 7.72-.39 0-.79-.02-1.19-.07l.21-1.79c4.21.49 8.21-2.23 9.31-6.33.46-1.71.37-3.48-.24-5.13l1.69-.62c.74 2 .84 4.15.29 6.22h-.01ZM17.5 21.4a4.4 4.4 0 1 0 0-8.8 4.4 4.4 0 0 0 0 8.8Zm0-7c1.43 0 2.6 1.17 2.6 2.6 0 1.43-1.17 2.6-2.6 2.6-1.43 0-2.6-1.17-2.6-2.6 0-1.43 1.17-2.6 2.6-2.6Zm-11-1.8a4.4 4.4 0 1 0 0 8.8 4.4 4.4 0 0 0 0-8.8Zm0 7c-1.43 0-2.6-1.17-2.6-2.6 0-1.43 1.17-2.6 2.6-2.6 1.43 0 2.6 1.17 2.6 2.6 0 1.43-1.17 2.6-2.6 2.6Z" fill="currentColor"/></symbol><symbol fill="none" viewBox="0 0 48 48" id="daf-zero-fees" xmlns="http://www.w3.org/2000/svg"><path d="m31.57 33.56 1.5 1c-2.18 3.27-5.45 5-9.46 5-3.45 0-6.37-1.29-8.5-3.74-1.25 1.32-2.19 2.02-2.28 2.09l-.53.39L.56 29.87l.66-.75c.05-.06 5.03-5.7 7.6-12.44l.22-.58h3.26c1.77-5.73 5.82-9 11.22-9 7.53 0 12.21 6.22 12.21 16.22 0 .51-.01 1.02-.04 1.52l-1.8-.11c.03-.47.04-.94.04-1.41 0-9.03-3.89-14.42-10.41-14.42-4.45 0-7.72 2.55-9.33 7.2h2.96c1.72-2.48 4.07-3.94 6.37-3.94 4.58 0 7.31 4.17 7.31 11.15s-2.73 11.15-7.31 11.15c-1.6 0-2.99-.51-4.13-1.51l1.19-1.35c.8.71 1.79 1.06 2.94 1.06 3.5 0 5.51-3.41 5.51-9.35 0-5.94-2.01-9.35-5.51-9.35-1.78 0-3.75 1.35-5.13 3.53l-.27.42h-7.86c-2.18 5.4-5.63 9.92-7.06 11.66l9.04 6.5c1.39-1.2 5.3-4.99 7.24-11.12l-1.89-5.42 1.7-.59 2.08 5.97-.08.28a26.889 26.889 0 0 1-4.99 9.27c1.81 2.19 4.26 3.31 7.29 3.31 3.43 0 6.1-1.41 7.96-4.2l.02-.01ZM14.11 21.04c-.33.73-.08 1.52.56 1.76.64.25 1.42-.15 1.74-.88.33-.73.08-1.52-.56-1.76-.64-.25-1.42.15-1.74.88Zm28.63 5.81-9.06 12.37h2.05l9.06-12.37h-2.05Zm3.47 9.41c0 1.76-1.41 3.14-3.21 3.14s-3.21-1.38-3.21-3.14c0-1.76 1.41-3.14 3.21-3.14s3.21 1.38 3.21 3.14Zm-1.58 0c0-.95-.7-1.66-1.63-1.66-.93 0-1.63.71-1.63 1.66s.7 1.66 1.63 1.66c.93 0 1.63-.71 1.63-1.66Zm-9.17-3.29c-1.8 0-3.21-1.38-3.21-3.14 0-1.76 1.41-3.14 3.21-3.14s3.21 1.38 3.21 3.14c0 1.76-1.41 3.14-3.21 3.14Zm0-1.49c.93 0 1.63-.71 1.63-1.66s-.7-1.66-1.63-1.66c-.93 0-1.63.71-1.63 1.66s.7 1.66 1.63 1.66Z" fill="currentColor"/></symbol><symbol fill="none" viewBox="0 0 48 48" id="disaster-response" xmlns="http://www.w3.org/2000/svg"><path d="m23.36 27.64-.5-8.18h2.5l-.5 8.18h-1.5Zm.75 1.83c-.74 0-1.33.62-1.33 1.37 0 .75.6 1.35 1.33 1.35.73 0 1.37-.6 1.37-1.35 0-.75-.62-1.37-1.37-1.37Zm-.08-22.11c1.83 0 3.54.99 4.46 2.58l1.56-.9a6.971 6.971 0 0 0-6.02-3.48c-2.47 0-4.79 1.33-6.02 3.48l1.56.9a5.174 5.174 0 0 1 4.46-2.58ZM6.58 37.56c-.9-1.57-.9-3.51 0-5.08l-1.56-.9a6.905 6.905 0 0 0 0 6.87 6.884 6.884 0 0 0 5.95 3.44v-1.8c-1.8 0-3.48-.97-4.39-2.54v.01ZM43 31.67l-1.56.9a4.99 4.99 0 0 1 0 4.96 4.968 4.968 0 0 1-4.29 2.48v1.8c2.41 0 4.65-1.3 5.85-3.38 1.2-2.09 1.2-4.68 0-6.76Zm-6.08 5.29H11.08c-.83 0-1.58-.43-1.99-1.15-.42-.72-.42-1.58 0-2.3l12.92-22.37A2.28 2.28 0 0 1 24 9.99c.83 0 1.58.43 1.99 1.15l12.92 22.37c.42.72.42 1.58 0 2.3a2.28 2.28 0 0 1-1.99 1.15Zm.43-2.55L24.43 12.04a.484.484 0 0 0-.43-.25c-.08 0-.3.02-.43.25L10.65 34.41c-.13.22-.04.42 0 .5.04.08.17.25.43.25h25.83c.26 0 .39-.17.43-.25a.5.5 0 0 0 0-.5h.01Z" fill="currentColor"/></symbol><symbol fill="none" viewBox="0 0 48 48" id="donation" xmlns="http://www.w3.org/2000/svg"><path d="M22.28 29.16c1.28-2.15 4.45-7.2 8.16-10.9l1.27 1.27c-4.55 4.55-8.41 11.46-8.45 11.53-.14.25-.38.42-.66.45h-.12a.9.9 0 0 1-.64-.26l-5.47-5.47 1.27-1.27 4.64 4.64v.01Zm19.04-16.22c-3.14-3.61-8.55-4.26-12.96-1.81l1.37-4.66L28 5.96l-2.22 7.55 7.55 2.23.51-1.73-4.56-1.34c3.66-2.01 8.11-1.49 10.67 1.45 1.77 2.05 2.48 4.82 1.99 7.8-1.06 6.49-7.42 13.52-17.93 19.83-10.52-6.3-16.89-13.33-17.96-19.81-.49-2.98.22-5.76 1.99-7.81 1.72-1.97 4.29-2.93 7.05-2.62 3.36.37 6.32 2.5 8.13 5.84l1.58-.86c-2.09-3.87-5.56-6.34-9.51-6.78-3.37-.38-6.5.8-8.61 3.23-2.13 2.47-2.98 5.76-2.41 9.28.83 5.03 4.84 12.82 19.28 21.34l.46.27.46-.27C38.89 35.03 42.9 27.24 43.72 22.2c.58-3.51-.28-6.81-2.41-9.27l.01.01Z" fill="currentColor"/></symbol><symbol fill="none" viewBox="0 0 48 48" id="education" xmlns="http://www.w3.org/2000/svg"><path d="M43.29 14.52c0 .75-.45 1.43-1.17 1.79l-3.02 1.51c.13 1.28.4 2.54.82 3.78.47 1.39 1.11 2.74 1.91 4.01l-1.53.96c-.87-1.4-1.58-2.87-2.09-4.4-.45-1.35-.76-2.74-.91-4.13l-11.9-2.35c-.37.26-.86.42-1.4.42-1.15 0-2.08-.71-2.08-1.59 0-.88.93-1.59 2.08-1.59.89 0 1.65.43 1.94 1.03l12.07 2.38 3.3-1.65c.13-.06.17-.14.17-.18 0-.04-.04-.12-.17-.18L24.62 6.04c-.37-.18-.86-.18-1.24 0l-16.69 8.3c-.13.06-.17.14-.17.18 0 .04.04.12.17.18l16.7 8.3c.37.18.86.18 1.24 0L32 19.33a1.85 1.85 0 0 1 1.51-.06c.48.19.86.58 1.03 1.07l3.06 8.57.02.05.22.63 3.5 10.29-1.71.58-3.39-9.97c-2.43 1.21-7.08 2.87-12.23 2.87-2.12 0-7.34-.29-12.17-2.81l-2.6 9.85-1.74-.46 2.81-10.67 1.81-6.98 1.74.45-1.56 6.02c4.57 2.52 9.66 2.8 11.7 2.8 5.1 0 9.65-1.77 11.64-2.79l-2.8-7.84-7.42 3.67c-.89.43-1.95.43-2.83 0l-16.7-8.29c-.72-.36-1.17-1.04-1.17-1.79s.45-1.43 1.17-1.79l16.69-8.31c.89-.44 1.95-.43 2.83 0l16.7 8.31c.72.36 1.17 1.04 1.17 1.79h.01ZM24.9 35.29h-1.8c0 2.6.96 5.15 1.51 6.39-.5.2-1.41.42-2.92.42v1.8c3.44 0 4.57-1.05 4.76-1.26l.42-.47-.29-.56s-1.67-3.21-1.67-6.33l-.01.01Zm-8.74-.34c-.72 0-2.08.32-3.13 2.49l1.62.79c.45-.92 1.01-1.47 1.51-1.47s1.06.55 1.51 1.47l1.62-.79c-1.05-2.16-2.41-2.49-3.13-2.49Zm15.68 0c-.72 0-2.08.32-3.13 2.49l1.62.79c.45-.92 1.01-1.47 1.51-1.47s1.06.55 1.51 1.47l1.62-.79c-1.05-2.16-2.41-2.49-3.13-2.49Z" fill="currentColor"/></symbol><symbol fill="none" viewBox="0 0 48 48" id="emergencies" xmlns="http://www.w3.org/2000/svg"><path d="m41.58 13.96-1.63.77c.55 1.17.97 2.39 1.23 3.65-1.11-.44-2.71-.86-4.72-.86-1.81 0-3.54.43-5.1 1.23.07-3.2-.14-9.74-2.7-13.25 1.26.33 2.49.79 3.64 1.39l.83-1.6C30.4 3.88 27.32 3.13 24.2 3.1h-.21c-9.7 0-17.95 7.01-19.17 16.31-.05.42.13.83.48 1.07.35.24.8.26 1.17.05.65-.36 2.44-1.21 5.07-1.21 2.08 0 4.04.66 5.68 1.92a.9.9 0 0 0 1.1 0 9.355 9.355 0 0 1 4.79-1.88v5.88c-.31-.09-.67-.15-1.1-.15l-1.84.03-.06.84s-.08.98-1.39 3.65c-.13.27-.28.52-.43.78L8.7 32.27l.35 1.77 8.12-1.59c-.44.92-.77 1.89-.72 3v.1c.05.96.23 1.89.54 2.79l-8.31 1.78.38 1.76 9.28-1.99h4.86a4.896 4.896 0 0 0 4.81 4.01c2.7 0 4.9-2.2 4.9-4.9h-1.8c0 1.71-1.39 3.1-3.1 3.1-1.4 0-2.57-.93-2.95-2.21h.57c1.38 0 2.54-1.08 2.63-2.46l.3-4.35c.05-.73-.21-1.45-.7-1.98s-1.19-.83-1.84-.83l-1.1-.09v-10.8c1.74.16 3.38.8 4.79 1.88.16.12.35.19.55.19.2 0 .39-.06.55-.19 1.63-1.26 3.6-1.92 5.68-1.92 2.62 0 4.42.84 5.07 1.2.37.21.82.19 1.17-.05s.54-.65.48-1.07a18.21 18.21 0 0 0-1.61-5.45l-.02-.01ZM24.22 4.91c1.03.02 1.89.41 2.62 1.2C29.51 9 29.64 15.96 29.56 19c-1.68-.97-3.58-1.48-5.56-1.48-1.98 0-3.76.48-5.41 1.4-.08-3.08.07-9.95 2.72-12.81.75-.81 1.63-1.21 2.69-1.21h.22v.01ZM6.82 18.38c1.34-6.33 6.36-11.3 12.7-12.92-2.61 3.53-2.8 10.19-2.73 13.37-1.6-.86-3.38-1.31-5.25-1.31-2.01 0-3.61.42-4.72.86Zm19.1 13.68c.24 0 .45.09.61.27.16.17.24.4.22.63l-.3 4.35c-.03.44-.4.78-.84.78h-6.82c-.33-.84-.52-1.73-.56-2.68-.05-1.24.57-2.31 1.29-3.55.28-.47.55-.95.8-1.45.84-1.71 1.23-2.83 1.42-3.51H22c.96 0 1.1.13 1.1 2.1v2.9h.92l1.9.16ZM37.78 5.15c.29-.74 2.4-2.15 2.4-2.15s.56 2.48.26 3.21a1.43 1.43 0 0 1-1.86.8 1.43 1.43 0 0 1-.8-1.86Zm3.26 3.06s.56 2.48.26 3.21a1.43 1.43 0 0 1-1.86.8 1.43 1.43 0 0 1-.8-1.86c.29-.74 2.4-2.15 2.4-2.15Zm-7.34-.24c.29-.74 2.4-2.15 2.4-2.15s.56 2.48.26 3.21a1.43 1.43 0 0 1-1.86.8 1.43 1.43 0 0 1-.8-1.86Z" fill="currentColor"/></symbol><symbol fill="none" viewBox="0 0 48 48" id="employment" xmlns="http://www.w3.org/2000/svg"><path d="M40 11.1h-9.17c-.44-3.38-3.34-6-6.83-6s-6.39 2.62-6.83 6H8c-2.15 0-3.9 1.75-3.9 3.9v7.93l.53.24c5.75 2.64 12.12 4.07 18.47 4.2v2.35h1.8v-2.35c6.35-.13 12.72-1.56 18.47-4.2l.53-.24V15c0-2.15-1.75-3.9-3.9-3.9ZM24 6.9c2.5 0 4.58 1.82 5.01 4.2H18.99c.43-2.38 2.5-4.2 5.01-4.2Zm18.1 14.88c-5.38 2.38-11.3 3.68-17.2 3.8v-2.3h-1.8v2.3c-5.9-.12-11.82-1.42-17.2-3.8V15c0-1.16.94-2.1 2.1-2.1h32c1.16 0 2.1.94 2.1 2.1v6.78Zm-1 4.22h1.8v11c0 2.15-1.75 3.9-3.9 3.9H9c-2.15 0-3.9-1.75-3.9-3.9V26h1.8v11c0 1.16.94 2.1 2.1 2.1h30a2.1 2.1 0 0 0 2.1-2.1V26Z" fill="currentColor"/></symbol><symbol fill="none" viewBox="0 0 48 48" id="environment" xmlns="http://www.w3.org/2000/svg"><path d="M45.65 36.06c-1.46-1.51-2.89-2.7-4.27-3.61a4.4 4.4 0 0 0 .39-1.82c0-1.45-.69-2.78-1.79-3.55.17-.48.25-.98.25-1.5 0-1.68-.94-3.2-2.33-3.88 0-.11.01-.22.01-.33 0-2.35-1.79-4.27-3.98-4.27s-3.98 1.92-3.98 4.27c0 .11 0 .22.01.33-1.39.68-2.33 2.2-2.33 3.88 0 .52.09 1.02.25 1.5-1.1.78-1.79 2.1-1.79 3.55 0 .61.12 1.18.34 1.71-1.07.6-2.06 1.27-2.97 1.91-2.49-1.98-4.65-2.91-6.57-3.17V26.9h3.76c2.56 0 4.65-2.1 4.65-4.69 0-1.63-.85-3.12-2.2-3.97a4.728 4.728 0 0 0-2.51-6.04c.01-.14.02-.28.02-.42 0-2.59-2.08-4.69-4.65-4.69-2.57 0-4.65 2.1-4.65 4.69 0 .14 0 .28.02.42a4.717 4.717 0 0 0-2.83 4.32c0 .59.11 1.17.32 1.72-1.34.84-2.2 2.33-2.2 3.97 0 2.59 2.08 4.69 4.65 4.69h3.81v4.13c-2.81.22-5.05 1.79-7.04 3.2-1.74 1.23-3.38 2.39-5.06 2.39v1.8c2.25 0 4.12-1.32 6.1-2.73 3.55-2.51 6.91-4.87 12.84-.36-2.69 1.95-5.24 3.76-7.95 3.76v1.8c3.32 0 6.13-2.03 9.1-4.18l.86-.62c1.05-.75 2.24-1.58 3.5-2.28.7.66 1.61 1.08 2.62 1.08h3.02v4.1h1.8v-4.1h2.88c.96 0 1.83-.38 2.52-1 1.29.84 2.65 1.97 4.05 3.41l1.29-1.25.04.01ZM8.44 22.21c0-1.22.77-2.31 1.92-2.71l1.09-.39-.64-.96c-.32-.48-.49-1.04-.49-1.62 0-1.36.95-2.55 2.26-2.83l.94-.2-.26-.92c-.08-.3-.12-.55-.12-.79 0-1.59 1.28-2.89 2.85-2.89s2.85 1.3 2.85 2.89c0 .24-.04.49-.12.79l-.26.92.94.2c1.31.28 2.26 1.47 2.26 2.83 0 .58-.17 1.14-.49 1.62l-.64.96 1.09.39c1.15.41 1.92 1.5 1.92 2.71 0 1.59-1.28 2.89-2.85 2.89h-9.37c-1.57 0-2.85-1.3-2.85-2.89h-.03ZM37.79 33.1h-7.7c-1.2 0-2.18-1.11-2.18-2.47 0-1.05.6-1.99 1.49-2.33l1.02-.39-.57-.93c-.26-.42-.39-.9-.39-1.41 0-1.17.73-2.18 1.74-2.42l.9-.21-.24-.9c-.07-.26-.1-.48-.1-.69 0-1.36.98-2.47 2.18-2.47 1.2 0 2.18 1.11 2.18 2.47 0 .21-.03.43-.1.69l-.23.9.9.21c1.01.23 1.74 1.25 1.74 2.42 0 .51-.14 1-.39 1.41l-.57.93 1.02.39c.89.34 1.49 1.28 1.49 2.33 0 1.36-.98 2.47-2.18 2.47h-.01Z" fill="currentColor"/></symbol><symbol fill="none" viewBox="0 0 48 48" id="events" xmlns="http://www.w3.org/2000/svg"><path d="m32.81 27.03-1.52-.56a8.09 8.09 0 0 1-4.78-4.78l-.56-1.52c-.1-.26-.47-.26-.56 0l-.56 1.52a8.09 8.09 0 0 1-4.78 4.78l-1.52.56c-.26.1-.26.47 0 .56l1.52.56a8.09 8.09 0 0 1 4.78 4.78l.56 1.52c.1.26.47.26.56 0l.56-1.52a8.09 8.09 0 0 1 4.78-4.78l1.52-.56c.26-.1.26-.47 0-.56Zm-7.14 3.54a9.865 9.865 0 0 0-3.26-3.26 9.865 9.865 0 0 0 3.26-3.26 9.865 9.865 0 0 0 3.26 3.26 9.865 9.865 0 0 0-3.26 3.26ZM44.8 38.6c-3.86-7.72-3.9-28.39-3.9-28.6v-.9h-5v-.6c0-1.88-1.53-3.4-3.4-3.4-1.87 0-3.4 1.52-3.4 3.4v.6h-9.2v-.6c0-1.88-1.53-3.4-3.4-3.4-1.87 0-3.4 1.52-3.4 3.4v.6H8L3.14 39.9h7.7v-1.8h-5.6l3.91-24.76c.18 6.31.92 19.83 4.04 26.06l.25.5h32.01l-.65-1.3ZM30.9 8.5c0-.88.72-1.6 1.6-1.6.88 0 1.6.72 1.6 1.6v.6h-3.2v-.6Zm-16 0c0-.88.72-1.6 1.6-1.6.88 0 1.6.72 1.6 1.6v.6h-3.2v-.6Zm-.33 29.6c-3.18-7.08-3.6-23.22-3.66-27.2h7.13c-.18.69-.8 1.2-1.54 1.2v1.8c1.74 0 3.16-1.32 3.36-3h14.18c-.18.69-.8 1.2-1.54 1.2v1.8c1.74 0 3.16-1.32 3.36-3h3.25c.05 3.94.42 19.39 3.51 27.2H14.57Zm10.14-20-.65-3.73c.44-.11.91-.17 1.37-.17.48 0 .93.03 1.38.12l-.51 3.75c-.24-.02-.51-.03-.79-.02-.3 0-.57.02-.81.05h.01Zm4.83 1.67c-.23-.17-.45-.31-.66-.44l1.76-3.35c.43.19.84.44 1.22.72.36.27.7.58 1 .92l-2.69 2.66c-.19-.16-.4-.34-.63-.51Zm-8.61.71-2.79-2.56c.28-.35.61-.68.96-.96.37-.3.77-.55 1.19-.76l1.89 3.28c-.2.14-.42.29-.64.47-.23.18-.43.36-.61.53Z" fill="currentColor"/></symbol><symbol fill="none" viewBox="0 0 48 48" id="faith" xmlns="http://www.w3.org/2000/svg"><path d="M22.35 13.81a7.945 7.945 0 0 1 7.32-2.9c4.3.63 7.3 4.65 6.68 8.96-.07.46-.18.92-.33 1.36l-1.7-.58c.11-.33.2-.69.25-1.04.48-3.33-1.84-6.43-5.16-6.92-2.13-.31-4.3.55-5.66 2.24l-1.41-1.12h.01Zm18.02 17.57c-.32-5.17-4.62-9.28-9.87-9.28-4.18 0-7.92 2.64-9.33 6.57l1.7.61a8.113 8.113 0 0 1 7.63-5.38c4.16 0 7.6 3.16 8.05 7.2h-.05c-1.28 0-2.52.38-3.58 1.09l1 1.49a4.6 4.6 0 0 1 7.14 4.41H16.94c-.03-.2-.04-.4-.04-.6 0-2.54 2.06-4.6 4.66-4.6v-1.8H4.94a4.6 4.6 0 0 1 7.14-4.41l1-1.49A6.444 6.444 0 0 0 9.5 24.1h-.05c.45-4.05 3.88-7.2 8.05-7.2 3.13 0 6.01 1.83 7.34 4.67l1.63-.76c-1.62-3.46-5.15-5.7-8.97-5.7-5.25 0-9.55 4.11-9.87 9.28-2.62.8-4.53 3.24-4.53 6.12 0 .6.08 1.19.25 1.75l.19.65h13.52a6.395 6.395 0 0 0-1.95 4.6c0 .6.08 1.19.25 1.75l.19.65h28.93l.19-.65c.16-.56.25-1.15.25-1.75 0-2.88-1.91-5.32-4.53-6.12l-.02-.01ZM29.4 8.55c.19.02.39.04.62.07.2.03.4.07.58.11l.09.02 1.02-3.31-.09-.03c-.35-.12-.71-.21-1.1-.27-.38-.05-.76-.07-1.13-.06h-.1l.03 3.47h.09-.01Zm7.33 4.08c.12.17.24.33.34.49l.05.08 3.06-1.62-.04-.09c-.16-.34-.36-.65-.59-.97-.23-.31-.48-.59-.76-.84l-.07-.07-2.43 2.47.06.07c.12.14.25.3.39.49l-.01-.01Zm1.98 6.97c-.02.19-.04.39-.07.62-.03.2-.07.4-.1.58l-.02.09 3.31 1.02.03-.09c.12-.35.21-.71.27-1.1.05-.38.07-.76.06-1.13v-.1l-3.47.03v.09l-.01-.01Zm-16.76-8.69c.14-.12.3-.25.49-.39.17-.12.33-.24.49-.34l.08-.05-1.62-3.06-.09.04c-.34.16-.65.36-.97.59-.31.23-.59.48-.84.76l-.07.07 2.47 2.43.07-.06-.01.01Z" fill="currentColor"/></symbol><symbol fill="none" viewBox="0 0 48 48" id="family" xmlns="http://www.w3.org/2000/svg"><path d="M24 26.9c2.7 0 4.9-2.2 4.9-4.9s-2.2-4.9-4.9-4.9-4.9 2.2-4.9 4.9 2.2 4.9 4.9 4.9Zm0-8c1.71 0 3.1 1.39 3.1 3.1 0 1.71-1.39 3.1-3.1 3.1-1.71 0-3.1-1.39-3.1-3.1 0-1.71 1.39-3.1 3.1-3.1Zm-13.6 1.7c2.9 0 5.25-2.36 5.25-5.25S13.3 10.1 10.4 10.1s-5.25 2.36-5.25 5.25S7.5 20.6 10.4 20.6Zm0-8.7c1.9 0 3.45 1.55 3.45 3.45 0 1.9-1.55 3.45-3.45 3.45-1.9 0-3.45-1.55-3.45-3.45 0-1.9 1.55-3.45 3.45-3.45Zm27.2 8.7c2.89 0 5.25-2.36 5.25-5.25S40.5 10.1 37.6 10.1s-5.25 2.36-5.25 5.25 2.35 5.25 5.25 5.25Zm0-8.7c1.9 0 3.45 1.55 3.45 3.45 0 1.9-1.55 3.45-3.45 3.45-1.9 0-3.45-1.55-3.45-3.45 0-1.9 1.55-3.45 3.45-3.45Zm.09 10.67c-2.67 0-4.92 1.03-6.7 3.05-1.18 1.35-2 2.98-2.55 4.62-2.8-1.28-6.08-1.28-8.88 0-.55-1.65-1.37-3.28-2.55-4.62-1.77-2.02-4.03-3.05-6.7-3.05-7.3 0-8.27 6.77-9.2 13.31l1.78.25c1.05-7.32 2.07-11.76 7.42-11.76 2.13 0 3.93.82 5.35 2.43 1.07 1.22 1.82 2.77 2.3 4.34-2.25 1.54-3.86 3.93-3.86 6.86 0 1.7 1.06 2.95 2.59 3.05 1.58.11 3.36-1.15 3.7-3.75.17-1.29.11-3.25-.36-5.34 1.14-.57 2.48-.91 3.97-.91 1.49 0 2.83.34 3.97.91-.47 2.09-.53 4.06-.36 5.34.33 2.5 1.99 3.76 3.52 3.76h.18c1.52-.1 2.59-1.35 2.59-3.05 0-2.93-1.6-5.32-3.86-6.86.48-1.57 1.23-3.12 2.3-4.34 1.42-1.62 3.22-2.43 5.35-2.43 5.35 0 6.37 4.44 7.42 11.76l1.78-.25c-.93-6.54-1.9-13.31-9.2-13.31v-.01ZM18.61 37.06c-.2 1.5-1.05 2.23-1.8 2.19-.57-.04-.9-.51-.9-1.25 0-1.79.92-3.64 2.51-4.98.28 1.55.33 3 .19 4.05v-.01ZM32.1 38c0 .75-.34 1.22-.9 1.25-.74.03-1.61-.69-1.8-2.19-.14-1.04-.09-2.5.19-4.05 1.59 1.34 2.51 3.2 2.51 4.98V38Z" fill="currentColor"/></symbol><symbol fill="none" viewBox="0 0 48 48" id="food-agriculture-nutrition" xmlns="http://www.w3.org/2000/svg"><path d="M22.58 3.26c.97-.02 1.87.32 2.54.99 3.2 3.2 4.01 12.58.45 16.14a5.723 5.723 0 0 1-3.166 1.618 47.303 47.303 0 0 1-1.06 4.047 57.555 57.555 0 0 1 4.026-1.251 6.21 6.21 0 0 1 1.8-3.674c3.93-3.93 14.27-3.02 17.79.5 1.48 1.48 1.41 3.95-.14 5.5-1.33 1.33-3.32 1.57-4.79.69-.05.06-.11.12-.17.18-1.18 1.18-2.91 1.51-4.33.91-.09.11-.19.21-.28.3-1.13 1.13-2.62 1.79-4.18 1.84h-.2l.03-.01c-1.51 0-2.9-.57-3.94-1.61-.21-.21-.4-.44-.57-.67l1.46-1.05c.11.16.24.31.38.45.73.73 1.73 1.1 2.81 1.08a4.408 4.408 0 0 0 3.52-2.01l.53-.79.76.58c.8.61 1.99.48 2.76-.29.17-.17.32-.38.44-.63l.59-1.2.99 1.12c.75.75 2.08.69 2.93-.16.85-.85.92-2.18.14-2.96-2.6-2.6-11.93-3.82-15.25-.5a4.519 4.519 0 0 0-1.15 1.923c1.894-.432 3.953-.78 5.91-.863l.07 1.8c-4.148.169-8.938 1.658-11.219 2.45.332.7.51 1.472.51 2.27 0 1.42-.551 2.75-1.561 3.75-1.01 1.01-4.3 3.87-7.7 6.23-3.29 2.28-5.65 3.4-7.23 3.4-.67 0-1.2-.2-1.6-.6-1.34-1.34-.45-4.14 2.8-8.83 2.36-3.41 5.22-6.7 6.22-7.71a5.321 5.321 0 0 1 6.2-.96c.622-2.06 1.64-5.94 1.64-9.36h1.8c0 1.37-.15 2.793-.368 4.15a4.007 4.007 0 0 0 1.528-.95c1.29-1.29 1.96-3.89 1.77-6.94-.17-2.82-1.06-5.49-2.23-6.66-.66-.66-1.8-.61-2.53.13-.73.73-.79 1.87-.13 2.53.011.001.051.03.09.06l1.01.89-1.21.59a2 2 0 0 0-.54.38c-.66.66-.77 1.68-.25 2.36l.58.76-.8.53c-.24.16-.44.32-.62.5-1.45 1.45-1.55 3.73-.21 5.07.13.13.27.25.41.35l-1.04 1.47c-.23-.16-.45-.34-.64-.54-2.04-2.04-1.95-5.46.21-7.61.07-.07.15-.14.23-.21-.52-1.3-.21-2.87.86-3.94.04-.04.07-.07.11-.1-.76-1.36-.53-3.15.67-4.35.69-.69 1.59-1.08 2.54-1.11Zm-5.32 23.21c-.9 0-1.8.34-2.48 1.03-3.52 3.52-10.23 12.78-9.02 13.99 1.23 1.24 10.37-5.41 13.99-9.02.66-.66 1.03-1.54 1.03-2.48s-.37-1.82-1.03-2.48a3.507 3.507 0 0 0-2.48-1.03l-.01-.01Z" fill="currentColor"/></symbol><symbol fill="none" viewBox="0 0 48 48" id="gofundme-giving-guarantee" xmlns="http://www.w3.org/2000/svg"><path d="m31.84 25.94-1.7.6a6.536 6.536 0 0 0-6.15-4.35c-2.76 0-5.24 1.75-6.15 4.35l-1.7-.6a8.336 8.336 0 0 1 7.85-5.56c3.53 0 6.68 2.23 7.85 5.56Zm-8.46-8.06c.19-.01.39-.02.62-.02.21 0 .41 0 .59.02h.09l.53-3.42-.1-.02c-.37-.07-.74-.1-1.13-.11-.38 0-.76.04-1.13.11l-.1.02.53 3.43h.09l.01-.01Zm6.69 1.72c.17.13.33.26.47.39l.07.06 2.51-2.39-.06-.07a5.975 5.975 0 0 0-1.79-1.38l-.09-.04-1.67 3.04.08.05c.16.1.32.22.49.35l-.01-.01Zm-12.64.39c.15-.13.3-.26.47-.39.17-.13.33-.24.49-.35l.08-.05-1.67-3.04-.09.04a5.975 5.975 0 0 0-1.79 1.38l-.06.07 2.51 2.39.07-.06-.01.01Zm30.56 4.13v.03l-4.1 4.39v7.18l-1.24-.5c-1.81-.73-3.64-1.35-5.47-1.85-3.77 6.23-12.51 8.47-12.98 8.59l-.22.05-.22-.05c-.47-.12-9.19-2.35-12.96-8.56-1.85.51-3.7 1.11-5.49 1.83l-1.23.49v-7.17L0 24.16l.63-.62c.07-.07 1.83-1.75 6.1-3.04.08-.03.18-.05.26-.08v1.88c-2.21.69-3.63 1.48-4.39 1.99l3.29 3.52v5.24c1.34-.5 2.71-.93 4.09-1.32-.56-1.34-.89-2.84-.89-4.51v-15.8l.77-.12c2.67-.4 5.3-1.1 7.81-2.08 2.03-.79 4-1.78 5.85-2.93l.47-.29.47.29c1.86 1.15 3.83 2.13 5.85 2.93 2.51.98 5.13 1.68 7.81 2.08l.77.12v15.8c0 1.66-.33 3.16-.88 4.5 1.36.38 2.73.81 4.08 1.32V27.8l3.28-3.5c-.79-.51-2.23-1.3-4.38-1.99v-1.89c.1.03.2.06.29.09 4.08 1.28 5.96 2.92 6.04 2.99l.67.6v.02Zm-37.1 3.12c0 .77.09 1.5.25 2.19a51.126 51.126 0 0 1 25.71-.02c.16-.69.25-1.41.25-2.17V12.98A38.092 38.092 0 0 1 24 8.13a38.157 38.157 0 0 1-5.67 2.78 37.38 37.38 0 0 1-7.43 2.06v14.26l-.01.01Zm25.39 3.9c-8-2.05-16.45-2.07-24.57.02 2.63 6.03 10.84 8.58 12.28 8.99 1.44-.41 9.66-2.98 12.29-9.01Z" fill="currentColor"/></symbol><symbol fill="none" viewBox="0 0 48 48" id="healthcare" xmlns="http://www.w3.org/2000/svg"><path d="M21 4c.772 0 1.445.445 1.777 1.09H24c1.6 0 2.9 1.3 2.9 2.9v4.3a6.926 6.926 0 0 1-.728 3.073l.008.007-.028.032a6.894 6.894 0 0 1-1.332 1.829l-7.92 7.721V33c0 5.02 4.08 9.11 9.11 9.11 5.03 0 9.04-4.02 9.1-8.98-5.95-3.62-7.62-6.87-7.97-8.98-.27-1.62.16-3.17 1.19-4.36 1-1.15 2.48-1.71 4.07-1.54 1.4.16 2.66.85 3.61 1.96.94-1.1 2.19-1.79 3.58-1.95 1.58-.18 3.1.39 4.09 1.53 1.87 2.16 2.6 6.06-4.51 12.39l-1.2-1.35c3.32-2.95 6.77-7.06 4.35-9.87-.61-.7-1.53-1.04-2.53-.92-1.24.14-2.33.94-2.99 2.18l-.79 1.48-.8-1.48c-.68-1.25-1.78-2.05-3.02-2.19-.99-.11-1.91.23-2.52.93-.48.55-1 1.5-.77 2.89.41 2.52 3.1 5.35 7.55 7.98l.44.26V33c0 6.01-4.9 10.89-10.91 10.89l.03.02C20 43.91 15.1 39.02 15.1 33v-8.047L7.18 17.23a6.895 6.895 0 0 1-1.333-1.828c-.01-.01-.018-.021-.027-.032l.007-.007A6.927 6.927 0 0 1 5.1 12.29v-4.3c0-1.6 1.3-2.9 2.9-2.9h1.223A2.004 2.004 0 0 1 11 4v4c-.78 0-1.458-.454-1.787-1.11H8c-.61 0-1.1.49-1.1 1.1v4.3c0 .74.165 1.468.47 2.13 2.067 2.452 5.272 3.91 8.63 3.91 3.36 0 6.565-1.46 8.632-3.912a5.111 5.111 0 0 0 .469-2.128v-4.3c0-.61-.491-1.1-1.101-1.1h-1.213A2.004 2.004 0 0 1 21 8V4Zm-5 19.31 3.814-3.718A13.652 13.652 0 0 1 16 20.13c-1.318 0-2.601-.186-3.816-.541L16 23.309Z" fill="currentColor"/></symbol><symbol fill="none" viewBox="0 0 48 48" id="heart-handshake" xmlns="http://www.w3.org/2000/svg"><path d="M30.84 21.98c-.12.13-.26.22-.42.25-.29.06-.6-.05-.8-.28-.16-.2-.22-.47-.17-.67l.05-.15.03-.07 2.45-3.36c.38-.6.51-1.31.36-1.99-.16-.74-.63-1.38-1.26-1.73-1.22-.73-2.79-.37-3.55.77l-4.27 5.51s0 .01-.01.01c-.07.09-.15.18-.22.27-.46-.6-.98-1.11-1.56-1.55 1.01-1.81 3.32-5.79 5.12-7.59 7.06-7.06 14.84-3.76 15.16-3.62l.73-1.64c-.09-.04-2.35-1.03-5.6-1.03-2.99 0-7.42.87-11.57 5.02-1.97 1.97-4.35 6.05-5.4 7.95-.66-.29-1.36-.48-2.09-.56-2.14-.24-4.13.51-5.48 2.06-2.3 2.67-2.79 7.55 2.7 13.23l.1.11c.88.96 1.87 2.07 3.55 2.01h7.81c.61-.03 1.08.4 1.18 1.02l.03.14c.07.86-.61 1.22-1.06 1.36-1.11.27-2.29.43-3.5.43v1.8c1.21 0 2.39-.14 3.52-.39l.32-.07c.04 0 .07-.03.11-.04 2.69-.66 5.06-1.98 6.66-3.81.44-.5 1.13-.56 1.69-.15.37.27.61.72.65 1.23.05.53-.11 1.05-.44 1.42-2.98 3.33-7.54 5.25-12.51 5.25-5.98 0-11.35-2.79-14-7.28l-1.55.92c2.97 5.03 8.93 8.16 15.55 8.16 5.48 0 10.53-2.13 13.85-5.85.67-.75.99-1.76.89-2.79-.1-1.01-.6-1.93-1.37-2.5-1.32-.98-3.05-.81-4.12.41-.78.89-1.77 1.63-2.9 2.22.01-.23.01-.46-.03-.71l-.05-.23v-.02c-.33-1.4-1.55-2.36-2.93-2.33h-7.82c-.85.02-1.35-.5-2.2-1.42l-.12-.13c-4.67-4.82-4.43-8.75-2.65-10.81.95-1.09 2.38-1.62 3.92-1.45 1.9.21 3.58 1.42 4.6 3.32l.79 1.47.79-1.47c.25-.47.52-.87.82-1.22l.03-.04.04-.05c1.04-1.21 2.44-1.92 3.88-2.03l-.55.75c-.11.16-.19.33-.25.51l-.06.21c-.22.82-.04 1.69.5 2.35.51.62 1.25.96 2.02.96a2.633 2.633 0 0 0 1.92-.86c.2-.22.56-.57 1.02-.99 1 2.59-.22 5.96-3.39 9.23l-.51.5 1.27 1.28.51-.5c3.95-4.07 5.24-8.41 3.54-11.77 1.2-1.04 2.53-2.17 3.35-2.85 1.26-1.07 2.34-1.69 4.17-1.69v-1.8c-2.36 0-3.84.85-5.33 2.11-.94.77-4.96 4.15-5.97 5.27l.03-.02Zm-3.25-4.38 1.4-1.81c.26-.4.77-.52 1.19-.26.28.16.37.41.4.55.05.21 0 .45-.09.6l-.63.87c-.76-.1-1.52-.09-2.27.06v-.01Z" fill="currentColor"/></symbol><symbol fill="none" viewBox="0 0 48 48" id="housing-and-shelter" xmlns="http://www.w3.org/2000/svg"><path d="m45.1 14.27-.88 1.57-19.2-10.73c-.63-.35-1.42-.35-2.05 0L3.78 15.84l-.88-1.57L22.1 3.54c1.17-.66 2.63-.66 3.81 0l19.2 10.73h-.01Zm-6.43.95 1.8.1-1.41 24.9a3.901 3.901 0 0 1-3.89 3.68H12.84a3.91 3.91 0 0 1-3.9-3.68l-1.41-24.9 1.8-.1 1.41 24.9c.06 1.11.99 1.98 2.1 1.98h6.26V31.89l.16-.23c.3-.43 1.91-2.55 4.74-2.55.5 0 3.06.12 4.74 2.56l.16.23v10.21h6.27c1.11 0 2.03-.87 2.09-1.98l1.41-24.9v-.01ZM20.9 42.1h6.2v-9.64c-1.19-1.52-2.9-1.56-3.1-1.56-1.63 0-2.7 1.09-3.1 1.57v9.63Zm-3.57-23.37c-.21-1.28.1-2.48.88-3.39.78-.91 1.94-1.36 3.18-1.22 1 .11 1.9.58 2.61 1.32.7-.74 1.6-1.2 2.59-1.32 1.23-.14 2.42.31 3.2 1.21.78.91 1.09 2.11.88 3.39-.28 1.69-1.58 4.28-6.2 7.05l-.46.28-.46-.27c-4.63-2.76-5.93-5.35-6.21-7.04l-.01-.01Zm1.78-.29c.17 1.03 1.04 3.09 4.9 5.51 3.85-2.42 4.72-4.48 4.89-5.51.12-.75-.04-1.42-.47-1.92-.39-.45-.98-.67-1.63-.6-.82.09-1.55.63-2 1.48l-.79 1.5-.8-1.5c-.46-.85-1.19-1.4-2.02-1.49-.65-.07-1.23.15-1.62.6-.43.51-.59 1.17-.47 1.93h.01Z" fill="currentColor"/></symbol><symbol fill="none" viewBox="0 0 48 48" id="human-rights" xmlns="http://www.w3.org/2000/svg"><path d="M21.07 43.9c-4.11 0-7.39-2.48-10.04-7.57-1.82-3.47-3.84-5.38-6.35-6.01l-1.11-.28.53-1.01c1.9-3.63 5.26-4.3 7.74-3.35 2.04.74 3.75 2.77 5.02 4.46.11.12.3.36.5.62 1.82 2.31 3.15 3.45 4.56 2.42.11-.09.3-.29.28-.73-.04-.75-.63-1.61-1.15-1.93l-.2-.14c-2.55-1.8-4.23-2.98-4.23-6.01 0-1.49 1.11-5.45 2.94-11.79.84-2.9 1.71-5.9 2.32-8.3l.3-1.16 1.03.61c2.53 1.49 3.99 3.79 3.99 6.32 0 1.29-.69 3.21-1.5 5.44-.71 1.96-1.6 4.44-1.78 6.15L34.98 7.93l.68 1c1.88 2.74 2.37 4.7 1.63 6.54-.79 1.87-2.83 4.01-4.81 6.07-1.33 1.39-3.16 3.3-3.89 4.61l13.43-7.38.36.98c1.23 3.34-.6 6.41-3.04 7.73-1.18.63-2.4 1.18-3.47 1.67-1.48.67-3 1.35-3.8 2.03h9.35l-.42 1.2c-.39 1.11-1.58 4.47-4.46 4.47h-5.8v-1.8h5.8c.58 0 1.41-.24 2.28-2.07h-9.11v-.9c0-2.12 2.4-3.2 5.43-4.57 1.1-.5 2.24-1.01 3.36-1.61 1.23-.66 2.71-2.32 2.45-4.48L27.16 29l-.43-.81c-1.1-2.08 1.47-4.77 4.45-7.89 1.86-1.95 3.79-3.96 4.44-5.51.29-.73.4-1.76-.8-3.81L23.27 25.3l-.68-1.04c-1.28-1.98.08-5.73 1.39-9.37.68-1.89 1.39-3.85 1.39-4.83s-.3-2.62-2.1-4.08c-.58 2.17-1.3 4.68-2.01 7.11-1.35 4.66-2.87 9.95-2.87 11.29 0 2.1 1.01 2.81 3.47 4.54l.16.11c1.05.65 1.89 2.07 1.95 3.34.05.92-.31 1.73-.99 2.26-3.12 2.26-5.78-1.13-7.06-2.75-.18-.23-.35-.44-.49-.6-1.07-1.42-2.63-3.31-4.25-3.91-1.53-.59-3.53-.27-4.94 1.58 2.49 1 4.57 3.16 6.35 6.55 2.34 4.5 5.02 6.6 8.44 6.6 2.85 0 5.34-1.57 7.41-4.68l1.5 1c-2.39 3.59-5.47 5.48-8.91 5.48h.04Z" fill="currentColor"/></symbol><symbol fill="none" viewBox="0 0 48 48" id="hunger-and-poverty" xmlns="http://www.w3.org/2000/svg"><path d="M27.64 27.98h-7.28v-1.8h7.28v1.8Zm12.79-6.88h2.47V38c0 2.15-1.75 3.9-3.9 3.9H9.78c-2.58 0-4.68-2.1-4.68-4.68V21.1h3v-3.82c0-1.15.43-2.23 1.2-3.05l1.35-1.42c.45-.47.71-1.13.71-1.8V7.1h7.33v3.91c0 .67.26 1.33.71 1.8l-1.3 1.24c-.78-.82-1.2-1.9-1.2-3.04V8.9h-3.73v2.11c0 1.15-.43 2.23-1.2 3.04l-1.35 1.42c-.45.47-.71 1.13-.71 1.8v3.82h7.97c-.13-.53-.21-1.07-.21-1.64 0-3.35 2.43-6.15 5.62-6.72.43-3.17 3.36-4.44 3.49-4.5l.7 1.66c-.08.04-1.9.85-2.35 2.76 2.62.24 4.81 1.96 5.73 4.32l.18-.48c2.4-6.32 4.87-12.86 10.52-10.75.85.32 1.49.96 1.84 1.86 1.35 3.44-1.59 10.5-2.97 13.5Zm-5.57-9.19 1.76.92c.22.12.16.44-.09.47l-2.4.25c-.32.77-.65 1.59-.99 2.47l1.9 1c.22.12.16.44-.09.47l-2.47.26c-.43 1.12-.86 2.25-1.33 3.35h7.28c1.48-3.06 4.37-10.09 3.29-12.84-.17-.43-.42-.69-.79-.83-2.64-.98-4.35.84-6.07 4.48ZM19.74 21.1h9.51c.19-.51.28-1.06.28-1.64a5.036 5.036 0 0 0-10.07 0c0 .58.09 1.13.28 1.64Zm21.36 1.8H6.9v14.32a2.88 2.88 0 0 0 2.88 2.88H39a2.1 2.1 0 0 0 2.1-2.1V22.9Z" fill="currentColor"/></symbol><symbol fill="none" viewBox="0 0 48 48" id="international-aid" xmlns="http://www.w3.org/2000/svg"><path d="M24 3.34c7.59 0 13.68 3.19 17.15 8.99l-1.54.92c-3.13-5.23-8.67-8.11-15.6-8.11S10.8 8.59 7.75 14.46c.64-.13 1.31-.2 1.98-.2 2.71 0 5.26 1.13 7.14 3.12 1.88-2 4.43-3.12 7.14-3.12 2.703 0 5.251 1.125 7.132 3.114 1.873-1.99 4.415-3.114 7.127-3.114 1.4 0 2.75.29 4.02.88.27.13.46.38.51.67.05.3-.06.6-.27.8L29.151 29.1h5.75V42c0 1.6-1.301 2.9-2.901 2.9H16c-1.6 0-2.9-1.3-2.9-2.9V29.1h5.47L5.457 16.595l.008-.01a.896.896 0 0 1-.215-.975C8.19 8.04 15.37 3.34 24 3.34ZM14.9 42c0 .61.49 1.1 1.1 1.1h16c.61 0 1.1-.49 1.1-1.1V30.9H14.9V42Zm10-5.9H28v1.8h-3.1V41h-1.8v-3.1H20v-1.8h3.1V33h1.8v3.1Zm-.89-20.04c-2.332 0-4.517 1.028-6.082 2.834L23.046 29.1h1.78l5.248-10.224c-1.564-1.794-3.74-2.816-6.064-2.816Zm-14.29-.02c-.675 0-1.335.085-1.973.251l13.15 12.54-4.815-9.602c-1.57-2.026-3.882-3.189-6.362-3.189Zm28.56.02c-2.48 0-4.801 1.16-6.37 3.2v-.01l-4.76 9.26L40.23 16.3c-.63-.16-1.28-.24-1.95-.24Z" fill="currentColor"/></symbol><symbol fill="none" viewBox="0 0 48 48" id="international-foreign-affairs-national-security" xmlns="http://www.w3.org/2000/svg"><path d="M12.32 7.01c7.54-2.51 15.8-2.51 23.34 0l7.23 2.41v17.77c0 5.8-3.26 10.9-9.43 14.73-4.568 2.839-9.066 3.98-9.26 4.02l-.22.05.02.01-.22-.05c-.19-.05-4.69-1.19-9.26-4.02-6.17-3.83-9.43-8.92-9.43-14.73V9.42l7.23-2.41ZM35.1 8.72a35.266 35.266 0 0 0-22.2 0l-6 2v16.47c0 11.77 15.09 16.39 17.1 16.95 2.001-.56 17.1-5.19 17.1-16.95V10.72l-6-2ZM24.01 11.1c7.11 0 12.9 5.79 12.9 12.9 0 4.21-2.06 8.16-5.5 10.57h-.01l-1.03-1.48a11.115 11.115 0 0 0 4.702-8.19h-4.857c-.21 6.899-2.811 12-6.215 12-7.11 0-12.9-5.79-12.9-12.9 0-4.21 2.06-8.16 5.5-10.57l1.03 1.48a11.115 11.115 0 0 0-4.702 8.19h4.857c.21-6.899 2.811-12 6.215-12h.01Zm-4.423 13.8c.202 6.055 2.42 10.2 4.413 10.2 1.993 0 4.21-4.145 4.413-10.2h-8.826Zm-6.657 0c.356 4.419 3.31 8.114 7.33 9.553-1.425-2.147-2.353-5.546-2.475-9.553H12.93Zm14.81-11.353c1.425 2.147 2.353 5.546 2.475 9.553h4.855c-.356-4.419-3.31-8.114-7.33-9.553ZM24 12.9c-2.002 0-4.212 4.145-4.413 10.2h8.826c-.202-6.055-2.42-10.2-4.413-10.2Z" fill="currentColor"/></symbol><symbol fill="none" viewBox="0 0 48 48" id="laptop-notifications" xmlns="http://www.w3.org/2000/svg"><path d="M33 28.1v1.8H23v-1.8h10Zm3.55-7h7.69l-6.41 19.8c-.52 1.34-1.47 2-2.83 2H12.69v-1.8H35c.62 0 .9-.19 1.13-.8l5.63-17.4H16.64l-5.93 18.11c-.47 1.2-1.5 1.9-2.68 1.9-.19 0-.38-.02-.58-.05-1.41-.27-2.36-1.41-2.36-2.85V16.16c0-2.15 1.75-3.9 3.9-3.9h4.24a3.9 3.9 0 0 1 3.41 2.01l1.22 2.84H25v1.8h-8.33l-1.65-3.85c-.33-.59-1.03-1-1.8-1H8.98a2.1 2.1 0 0 0-2.1 2.1v23.85c0 .67.46 1 .9 1.08.44.08.98-.05 1.23-.68l6.32-19.3h10.44a5.463 5.463 0 0 1 5.39-4.56c2.71 0 4.95 1.98 5.38 4.56l.01-.01Zm-8.92 0h7.08c-.4-1.58-1.83-2.77-3.54-2.77s-3.14 1.18-3.54 2.77Zm-3.98-7.51-1.24-7.2c-.08-.49.24-.96.73-1.04l7.2-1.24c.49-.08.96.24 1.04.73l1.24 7.2c.04.24-.01.48-.15.67-.14.19-.35.33-.58.37l-7.2 1.24c-.05 0-.1.01-.15.01-.18 0-.37-.06-.52-.17a.895.895 0 0 1-.37-.58v.01Zm.68-6.62.93 5.42 5.43-.93-.93-5.42-5.42.93h-.01Zm20.76 11.6a.881.881 0 0 1-.89.15l-8.61-3.18a.925.925 0 0 1-.58-.69c-.05-.32.06-.64.31-.84l7.06-5.87c.25-.21.58-.26.89-.15.31.11.52.38.58.69l1.55 9.05c.05.32-.06.64-.31.84Zm-1.73-2.08-1.03-5.97-4.66 3.88 5.69 2.1v-.01Z" fill="currentColor"/></symbol><symbol fill="none" viewBox="0 0 48 48" id="medical" xmlns="http://www.w3.org/2000/svg"><path d="M42.19 11.2c-2.22-2.55-5.52-3.79-9.07-3.38-3.67.42-6.93 2.5-9.12 5.79-2.22-3.3-5.5-5.38-9.18-5.79-3.52-.4-6.81.84-9.02 3.39-3 3.47-3.53 8.39-1.43 13.16l.24.54h9.91l2.14-3.4 4.77 9.4 3.28-6h4.52c.4 1.44 1.7 2.5 3.26 2.5 1.88 0 3.4-1.53 3.4-3.4 0-1.87-1.52-3.4-3.4-3.4a3.38 3.38 0 0 0-3.26 2.5h-5.59l-2.15 3.94-4.66-9.19-3.3 5.25H5.8c-1.58-3.99-1.09-7.87 1.37-10.72 1.82-2.09 4.53-3.1 7.46-2.78 3.55.39 6.68 2.64 8.59 6.18l.8 1.48.79-1.48c1.87-3.51 4.98-5.76 8.52-6.17 2.95-.33 5.68.67 7.5 2.77 1.87 2.17 2.62 5.1 2.11 8.25-1.12 6.85-7.84 14.26-18.93 20.92-8.06-4.82-13.69-9.89-16.73-15.07l-1.55.91c3.25 5.54 9.25 10.92 17.82 15.98l.46.27.46-.27c11.83-7 19.02-14.97 20.24-22.45.6-3.69-.29-7.14-2.52-9.72v-.01ZM32.5 22.4c.88 0 1.6.72 1.6 1.6 0 .88-.72 1.6-1.6 1.6-.88 0-1.6-.72-1.6-1.6 0-.88.72-1.6 1.6-1.6Z" fill="currentColor"/></symbol><symbol fill="none" viewBox="0 0 48 48" id="memorials" xmlns="http://www.w3.org/2000/svg"><path d="M23.1 18.8V21h1.8v-2.2c1.9-.41 3.33-2.11 3.33-4.13 0-2.33-.92-3.6-2.21-5.35-.38-.53-.81-1.11-1.28-1.81l-.75-1.12-.75 1.12c-.43.65-.83 1.21-1.2 1.72-1.33 1.86-2.29 3.21-2.29 5.45 0 2.02 1.43 3.72 3.33 4.13l.02-.01Zm.42-8.54c.15-.22.31-.44.48-.68.2.28.39.54.57.79 1.24 1.7 1.86 2.55 1.86 4.29 0 1.02-.64 1.9-1.53 2.26V15h-1.8v1.92c-.9-.36-1.53-1.23-1.53-2.26 0-1.66.69-2.64 1.95-4.4Zm-.1-5.45-.43-2.78.11-.03c.33-.08.67-.12 1-.12.35 0 .68.04 1 .12l.11.03-.43 2.79h-.11c-.17-.03-.36-.04-.56-.04-.22 0-.41.01-.58.03h-.11Zm4.74 1.58-.1-.06 1.36-2.47.1.05a4.38 4.38 0 0 1 1.59 1.22l.07.09-2.04 1.94-.08-.08a6.079 6.079 0 0 0-.9-.69Zm-9.4.47-2.04-1.94.07-.09a4.38 4.38 0 0 1 1.59-1.22l.1-.05 1.36 2.47-.1.06c-.15.09-.3.2-.46.32-.16.13-.31.25-.44.37l-.08.08Zm16.14 28.2V20.49c0-1.68-1.85-3.03-5.2-3.8l-.4 1.75c2.77.63 3.8 1.59 3.8 2.04 0 .88-3.21 2.6-9.1 2.6s-9.1-1.72-9.1-2.6c0-.45 1.03-1.41 3.8-2.04l-.4-1.75c-3.35.77-5.2 2.12-5.2 3.8v14.57c-2.58 1.16-4 2.71-4 4.44 0 3.65 6.41 6.4 14.9 6.4s14.9-2.75 14.9-6.4c0-1.73-1.42-3.28-4-4.44ZM24 24.9c3.51 0 7.05-.64 9.1-1.88v14.91c0 .63-3.19 2.17-9.1 2.17s-9.1-1.54-9.1-2.17V23.02c2.05 1.24 5.59 1.88 9.1 1.88Zm0 19.2c-7.72 0-13.1-2.42-13.1-4.6 0-.82.8-1.69 2.2-2.44v.87c0 2.73 5.65 3.97 10.9 3.97s10.9-1.24 10.9-3.97v-.87c1.4.75 2.2 1.62 2.2 2.44 0 2.18-5.38 4.6-13.1 4.6Z" fill="currentColor"/></symbol><symbol fill="none" viewBox="0 0 48 48" id="mental-health" xmlns="http://www.w3.org/2000/svg"><path d="M12.05 30.31c2.11 5.29 2.109 9.43 2.109 14.68l.01.01h-1.8c0-5.06 0-9.05-1.99-14.02l1.67-.67ZM22.83 3.07c12.3 0 16.27 10.27 16.27 15.25 0 4.05 2.41 7.27 3.85 8.83.42.46.6 1.09.47 1.69-.12.6-.53 1.12-1.1 1.37l-2.28 1.02L39 38.19c-.2.411-1.532 2.37-8.1 2.54V45h-1.8v-6.03h.9c5.38 0 6.99-1.18 7.34-1.52l1.06-7.43 3.19-1.43c.001 0 .06-.03.07-.09 0-.04 0-.08-.03-.11-1.62-1.75-4.33-5.39-4.33-10.06 0-4.39-3.54-13.45-14.48-13.45-4.35 0-7.93 1.48-10.36 4.28-2.48 2.86-3.67 7.11-3.1 11.09.51 3.6 2.41 6.58 5.08 7.97 2.59 1.36 5.7 1.2 9.01-.45 3.62-2.07 6.17-5.41 6.77-8.89.28-1.64.05-3.08-.62-3.85-.66-.76-1.66-1.13-2.74-1-1.34.15-2.52 1.01-3.23 2.35l-.79 1.48-.8-1.48c-.73-1.35-1.92-2.21-3.26-2.36-1.07-.12-2.07.25-2.73 1.01-.65.75-.93 1.73-.81 2.82.23 2.19 2.04 4.66 5.09 6.96l-1.08 1.44c-4.43-3.34-5.6-6.31-5.8-8.21-.17-1.58.27-3.06 1.24-4.19 1.06-1.21 2.62-1.8 4.29-1.62 1.49.17 2.84.92 3.85 2.12.99-1.19 2.33-1.95 3.82-2.12 1.65-.2 3.27.41 4.31 1.61 1.03 1.2 1.41 3.14 1.03 5.33-.69 4.01-3.56 7.82-7.69 10.17-4.9 2.45-8.51 1.6-10.69.46-3.18-1.66-5.43-5.15-6.02-9.31-.65-4.55.67-9.23 3.52-12.52 2.78-3.21 6.83-4.9 11.72-4.9Z" fill="currentColor"/></symbol><symbol fill="none" viewBox="0 0 48 48" id="mobile-notifications" xmlns="http://www.w3.org/2000/svg"><path d="M37.81 26.45c2.04 2.71 2.72 5.12 1.86 6.6-1.04 1.82-4.49 2.3-9.01 1.26-1.44-.33-2.93-.8-4.45-1.4a45.782 45.782 0 0 0 6.1-3.7c2.06-1.49 3.83-3.04 5.27-4.6 3.83-4.1 5.16-7.95 3.65-10.56-1.18-2.06-3.97-3-7.84-2.64l.16 1.79c3.09-.28 5.32.35 6.12 1.74 1.05 1.82-.25 5.05-3.41 8.44-.98 1.07-2.14 2.13-3.43 3.17.05-.86.08-1.71.08-2.56 0-1.51-.08-3.05-.23-4.58-.26-2.51-.72-4.82-1.35-6.88-1.64-5.36-4.31-8.44-7.32-8.44-2.44 0-4.69 2.04-6.33 5.76l1.65.73c1.32-2.98 3.02-4.69 4.68-4.69 2.1 0 4.24 2.75 5.6 7.17.43 1.4.77 2.93 1.03 4.57-.72-.47-1.45-.93-2.18-1.34-1.41-.81-2.79-1.51-4.08-2.08-2.27-1.02-4.5-1.79-6.63-2.28-5.48-1.26-9.48-.49-10.97 2.12-1.16 2-.63 4.81 1.49 7.89l1.48-1.02c-1.7-2.48-2.2-4.6-1.41-5.98 1.04-1.82 4.49-2.3 9.01-1.26 1.44.33 2.93.8 4.45 1.4-.73.37-1.48.77-2.25 1.21-1.36.79-2.66 1.63-3.85 2.49-1.97 1.42-3.75 2.97-5.28 4.6-.78.84-1.48 1.7-2.08 2.56-2.18 3.14-2.73 5.99-1.56 8.01 1.02 1.77 3.22 2.71 6.28 2.71.58 0 1.18-.03 1.82-.1l-.19-1.79c-3.22.34-5.53-.29-6.35-1.72-.8-1.39-.28-3.55 1.48-6.08.55-.79 1.2-1.58 1.92-2.36 1.03-1.1 2.19-2.16 3.45-3.17-.05.86-.08 1.72-.08 2.56 0 1.51.08 3.05.23 4.58.27 2.5.72 4.81 1.35 6.87 1.65 5.37 4.31 8.45 7.32 8.45 2.47 0 4.73-2.09 6.38-5.87l-1.65-.72c-1.33 3.05-3.05 4.79-4.73 4.79-2.1 0-4.24-2.75-5.6-7.18-.43-1.4-.77-2.93-1.02-4.56.72.47 1.45.93 2.18 1.34 1.41.81 2.79 1.51 4.08 2.08 2.27 1.02 4.5 1.79 6.63 2.28 1.72.4 3.3.59 4.7.59 3.05 0 5.25-.92 6.27-2.71 1.25-2.17.55-5.21-1.98-8.58l-1.44 1.08-.02.01Zm-17.36 3.7c-1.13-.65-2.25-1.38-3.36-2.16-.12-1.34-.19-2.68-.19-3.99s.07-2.65.19-3.99c1.05-.74 2.18-1.47 3.36-2.16 1.23-.71 2.42-1.31 3.55-1.82 1.14.52 2.32 1.12 3.55 1.82 1.13.65 2.25 1.38 3.36 2.16.12 1.34.19 2.68.19 3.99s-.07 2.65-.19 3.99c-1.11.78-2.24 1.51-3.36 2.16-1.23.71-2.42 1.31-3.55 1.82-1.14-.52-2.32-1.12-3.55-1.82Z" fill="currentColor"/></symbol><symbol fill="none" viewBox="0 0 48 48" id="newlyweds" xmlns="http://www.w3.org/2000/svg"><path d="m38.23 16.24 4.95-3.31-1.2-2.24-1.58.85.43.79-4.35 2.9-3.39-.84-2.48-4.6 2.99-2.01 1.86.46.43-1.75-2.63-.65-5.02 3.36 2.83 5.23c-2.54.1-5 .93-7.06 2.38-2.23-1.57-4.84-2.4-7.59-2.4-.59 0-1.17.05-1.75.13 1.8-2.52 2.03-4.37 1.85-5.54-.16-1.08-.73-1.96-1.6-2.48-.87-.52-1.96-.57-2.92-.13-.72.33-1.29.88-1.67 1.57a3.5 3.5 0 0 0-2.29-.29c-1.03.21-1.88.89-2.27 1.82-.39.94-.34 1.98.16 2.95.53 1.04 1.78 2.38 4.63 3.36-4.37 2.16-7.38 6.66-7.38 11.85 0 7.3 5.94 13.23 13.23 13.23 2.82 0 5.44-.9 7.59-2.41 2.21 1.55 4.87 2.41 7.59 2.41 7.3 0 13.23-5.94 13.23-13.23 0-4.87-2.66-9.13-6.59-11.43v.02Zm-30.7-4.6c-.25-.49-.29-.98-.1-1.42.17-.39.52-.67.98-.76.6-.12 1.24.09 1.76.59l1.21 1.16.29-1.65c.12-.7.51-1.24 1.07-1.5.43-.19.88-.18 1.24.04.41.25.67.67.75 1.21.12.79-.03 2.5-2.3 5.2-3.42-.86-4.54-2.15-4.91-2.86l.01-.01ZM31.59 39.1c-2.18 0-4.32-.63-6.14-1.8 2.57-2.42 4.19-5.84 4.19-9.63 0-3.1-1.1-6.12-3.14-8.55l-.1-.12-1.35 1.19.13.15c1.72 2.05 2.67 4.66 2.67 7.34 0 6.3-5.13 11.43-11.43 11.43S4.99 33.98 4.99 27.68s5.13-11.43 11.43-11.43c2.2 0 4.3.61 6.13 1.78-.42.39-.82.8-1.19 1.25-1.94 2.36-3 5.34-3 8.4 0 3.27 1.2 6.4 3.38 8.83l1.34-1.21c-1.88-2.09-2.92-4.8-2.92-7.62a11.446 11.446 0 0 1 4.14-8.81l.25-.19c1.99-1.56 4.49-2.42 7.04-2.42 6.3 0 11.43 5.13 11.43 11.43s-5.13 11.43-11.43 11.43v-.02Zm5.58-31.34c1.36-.15 2.59-.89 3.37-2.03.15 1.36.89 2.59 2.03 3.37-1.36.15-2.59.89-3.37 2.03a4.712 4.712 0 0 0-2.03-3.37Z" fill="currentColor"/></symbol><symbol fill="none" viewBox="0 0 48 48" id="philanthropy-voluntarism-grants-foundations" xmlns="http://www.w3.org/2000/svg"><path d="M30.43 10.14c2.61-.3 5.04.61 6.68 2.49 2.82 3.26 3.43 9.21-3.26 16.11l-1.29-1.25c5.85-6.03 5.49-11.02 3.2-13.68-1.24-1.42-3.1-2.11-5.12-1.88-2.43.28-4.57 1.83-5.86 4.25l-.79 1.49-.8-1.48c-1.31-2.43-3.46-3.98-5.9-4.26-2-.22-3.86.46-5.1 1.88-2.28 2.65-2.61 7.67 3.31 13.79l.14.15c1.07 1.17 1.8 1.87 2.92 1.85h9.77c1.71 0 3.1 1.16 3.43 2.83l.05.19c.066.44.06.862-.012 1.259 1.6-.77 2.99-1.786 4.062-3.009 1.25-1.43 3.29-1.63 4.84-.48.92.68 1.51 1.76 1.62 2.96.12 1.23-.27 2.43-1.06 3.32-4.1 4.59-10.35 7.22-17.13 7.22l.01.01c-8.18 0-15.54-3.86-19.22-10.08l1.55-.92c3.35 5.67 10.12 9.19 17.67 9.19 6.27 0 12.02-2.41 15.78-6.62.46-.51.68-1.22.61-1.95-.07-.7-.4-1.31-.91-1.69-.79-.59-1.78-.5-2.41.22-2.9 3.32-7.79 5.3-13.08 5.3v-1.8c1.386 0 2.737-.149 4.021-.429l-.002-.01c.5-.09 2.07-.511 1.9-2.091l-.03-.13c-.14-.88-.82-1.46-1.68-1.46h-9.75c-2 .08-3.2-1.27-4.27-2.44l-.119-.14c-6.75-6.98-6.17-12.95-3.37-16.21 1.64-1.88 4.06-2.79 6.66-2.5 2.58.29 4.88 1.69 6.49 3.92 1.59-2.22 3.88-3.62 6.45-3.92Zm-1-5.17c.3.14.59.32.85.52.25.19.49.42.69.67v.01l.07.08-1.99 1.89-.08-.08c-.12-.11-.26-.24-.42-.36-.16-.12-.31-.22-.45-.31l-.09-.06 1.32-2.4.1.04Zm-9.44 2.05-.09.06a5.222 5.222 0 0 0-.87.67l-.08.08-1.99-1.89.07-.08c.21-.25.44-.47.69-.67.26-.21.55-.38.85-.52v-.01l.1-.04 1.32 2.4Zm4.02-4.01c.35 0 .67.04.98.11l.1.02-.42 2.7h-.11c-.16-.02-.35-.03-.54-.03-.21 0-.39.01-.56.04h-.11l-.42-2.71.1-.03c.32-.07.64-.11.97-.11l.01.01Z" fill="currentColor"/></symbol><symbol fill="none" viewBox="0 0 48 48" id="public-safety-disaster-preparedness-relief" xmlns="http://www.w3.org/2000/svg"><path d="M44.96 27.97v7.89c0 5.99-7.55 7.93-7.87 8.01l-.22.05-.22-.05c-.18-.04-4.26-1.09-6.47-3.97H5.88c-1 0-1.89-.52-2.39-1.38-.51-.87-.51-1.92-.02-2.79L20.79 5.49c.51-.87 1.41-1.39 2.41-1.39 1 0 1.9.52 2.41 1.39l10.46 18.06-1.56.9L24.05 6.39a.974.974 0 0 0-.85-.49c-.17 0-.59.05-.85.49L5.03 36.62c-.18.31-.17.68 0 1 .08.15.34.49.84.49h25.25l.27.4c1.5 2.25 4.63 3.31 5.48 3.56 1.13-.34 6.29-2.11 6.29-6.21v-6.59l-2.03-.68c-2.76-.92-5.77-.92-8.53 0l-2.03.68v6.59h-1.8v-7.89l3.26-1.09c3.12-1.04 6.54-1.04 9.66 0l3.26 1.09h.01Zm-8.75 9.84c.28-.04.52-.21.66-.45.02-.04 1.94-3.47 4.19-5.72l-1.27-1.27c-1.66 1.66-3.11 3.84-3.89 5.1l-1.94-1.94-1.27 1.27 2.76 2.76c.17.17.4.26.64.26h.12v-.01ZM19.45 32.9l1.41-6h-3.18c-.28 0-.54-.13-.71-.35a.908.908 0 0 1-.16-.78l2.3-9c.1-.4.46-.68.87-.68h6.43c.31 0 .6.16.76.42.16.26.18.59.05.87l-2.25 4.71h3.44a.897.897 0 0 1 .7 1.46l-8.09 10.11a.895.895 0 0 1-1.57-.77v.01Zm2.54-7.8c.28 0 .54.13.71.34.17.21.23.5.17.76l-.76 3.23 4.43-5.54h-2.99c-.31 0-.6-.16-.76-.42a.925.925 0 0 1-.05-.87l2.25-4.71h-4.31l-1.84 7.2H22l-.01.01Z" fill="currentColor"/></symbol><symbol fill="none" viewBox="0 0 48 48" id="science-and-technology" xmlns="http://www.w3.org/2000/svg"><path d="M36.53 24c1.89-2.5 3.44-4.98 4.55-7.32 2.23-4.71 2.41-8.36.51-10.26-1.91-1.91-5.55-1.73-10.26.51-2.33 1.11-4.82 2.66-7.32 4.55C16.04 5.46 9.32 3.52 6.42 6.42c-1.91 1.91-1.73 5.55.51 10.26 1.11 2.33 2.66 4.82 4.55 7.32-1.89 2.5-3.44 4.98-4.55 7.32-2.23 4.71-2.41 8.36-.51 10.26.87.87 2.11 1.31 3.65 1.31 1.82 0 4.06-.61 6.61-1.82 2.33-1.11 4.82-2.66 7.32-4.55 5.47 4.13 10.45 6.35 13.94 6.35 1.53 0 2.77-.42 3.65-1.3 1.91-1.91 1.73-5.55-.51-10.26-1.11-2.33-2.66-4.82-4.55-7.32V24ZM8.55 15.91C6.69 11.99 6.38 9 7.69 7.69c2.07-2.07 8.12-.04 14.83 4.93a66.015 66.015 0 0 0-5.21 4.69c-1.7 1.7-3.28 3.46-4.7 5.22-1.68-2.27-3.06-4.51-4.06-6.62Zm7.36 23.54c-3.92 1.86-6.92 2.17-8.22.86-1.31-1.31-1-4.3.86-8.22 1-2.11 2.38-4.35 4.06-6.62 1.42 1.76 3 3.52 4.7 5.22 1.2 1.2 2.44 2.35 3.68 3.41l1.17-1.37a64.592 64.592 0 0 1-8.42-8.74 64.74 64.74 0 0 1 4.84-5.42c4.46-4.46 9.25-8.02 13.5-10.03 2.32-1.1 4.32-1.66 5.83-1.66 1.04 0 1.86.26 2.39.8 1.31 1.31 1 4.3-.86 8.22-1 2.11-2.38 4.35-4.06 6.62-1.42-1.76-3-3.52-4.7-5.22a69.254 69.254 0 0 0-3.91-3.62l-1.17 1.37c1.29 1.1 2.57 2.28 3.81 3.52 1.77 1.77 3.39 3.59 4.84 5.42a64.74 64.74 0 0 1-4.84 5.42c-4.46 4.46-9.25 8.02-13.5 10.03v.01Zm24.4.86c-2.06 2.07-8.18 0-14.84-4.92 1.76-1.42 3.51-2.99 5.22-4.7s3.28-3.46 4.7-5.22c1.68 2.27 3.06 4.51 4.06 6.62 1.86 3.92 2.17 6.91.86 8.22ZM24 19.1c-2.7 0-4.9 2.2-4.9 4.9s2.2 4.9 4.9 4.9 4.9-2.2 4.9-4.9-2.2-4.9-4.9-4.9Zm0 8c-1.71 0-3.1-1.39-3.1-3.1 0-1.71 1.39-3.1 3.1-3.1 1.71 0 3.1 1.39 3.1 3.1 0 1.71-1.39 3.1-3.1 3.1Z" fill="currentColor"/></symbol><symbol fill="none" viewBox="0 0 48 48" id="send-help" xmlns="http://www.w3.org/2000/svg"><path d="M43.67 7.72c-.6-.58-1.45-.75-2.25-.43l-7.4 3.19c-.19-.29-.4-.56-.65-.79-.96-.9-2.26-1.24-3.58-.92-1.12.27-2.09.98-2.78 2-.88-.78-1.93-1.21-3.09-1.18-1.36.02-2.59.71-3.31 1.84-.67 1.06-.86 2.37-.55 3.69.06.24.14.51.25.79l-6.72 2.68a2.08 2.08 0 0 0-1.31 1.85c-.04.84.4 1.59 1.14 1.97l4.36 2.21c.52.26.79.63.79 1.85v7.54c-3.91 3.35-6.32 4.17-7.72 4.19 1.29-1.29 2.05-2.97 2.05-4.58 0-2.04-1.2-3.46-2.92-3.46-1.45 0-2.69 1.16-3.23 3.03-.48 1.66-.35 3.73.66 5.15-1.24.53-2.73.8-4.42.8v1.8c2.65 0 4.57-.6 5.92-1.33 1.87.88 5.26.63 11.14-4.51 0 0 .04-.03.05-.04l4.85-4.85-1.27-1.27-3.32 3.32v-5.78c0-1.19-.2-2.66-1.78-3.46l-4.36-2.21c-.15-.07-.16-.21-.16-.28 0-.09.04-.2.18-.26l6.91-2.76c.8 1.14 2.08 2.4 4.14 3.64.43.26.89.51 1.37.76l-2.12 1.78c-.74.55-1.16 1.37-1.14 2.2.02.77.42 1.48 1.11 1.93l10.32 6.86a2.084 2.084 0 0 0 1.83.19 2.1 2.1 0 0 0 1.28-1.38l6.23-23.53c.29-.78.09-1.63-.51-2.21l.01-.03ZM9.33 37.14c-.11.1-.23.19-.35.29-.77-.92-.86-2.51-.5-3.75.23-.8.77-1.74 1.5-1.74.83 0 1.12.9 1.12 1.66 0 1.23-.66 2.56-1.77 3.53v.01ZM21.8 14.69c-.2-.85-.09-1.65.32-2.31.4-.63 1.06-.99 1.82-1.01.95-.06 1.87.52 2.52 1.47l.99 1.46.6-1.66c.41-1.13 1.19-1.91 2.15-2.14.72-.17 1.42 0 1.92.48.58.55.87 1.34.84 2.29-.04 1.27-.74 3.88-4.79 7.35-.7-.33-1.35-.68-1.94-1.04-2.46-1.49-4.04-3.23-4.44-4.9l.01.01Zm20.66-5.3-6.25 23.58c-.04.12-.12.17-.17.19-.06.02-.14.03-.21-.01l-10.3-6.85c-.2-.13-.3-.29-.31-.48 0-.24.15-.51.46-.74l3.19-2.68.03-.02c4.73-3.9 5.81-7.07 5.88-9.04.01-.41-.03-.81-.1-1.19l7.44-3.21c.14-.05.24 0 .31.06.05.05.13.15.05.38l-.02.01Z" fill="currentColor"/></symbol><symbol fill="none" viewBox="0 0 48 48" id="social-science" xmlns="http://www.w3.org/2000/svg"><path d="M44.13 5.1H23.97c-4.85 0-8.68 7.84-8.89 18H6.93c.34-6.52 4.34-12.29 10.41-14.86l-.7-1.66a18.877 18.877 0 0 0-11.52 16.5h-.07v.9c0 4.73 1.74 9.21 4.91 12.71l-6.18 6.2h20.19c4.85 0 8.68-7.84 8.89-18h8.11a17.043 17.043 0 0 1-10.39 14.83l.66 1.68.66-.24c6.68-3.07 11-9.81 11-17.17 0-4.75-1.74-9.23-4.93-12.72l6.16-6.18v.01ZM23.97 6.9c3.33 0 6.88 6.48 7.09 16.2H16.88c.21-9.72 3.76-16.2 7.09-16.2ZM12.48 36.72l-.63-.64c-3.01-3.03-4.76-6.97-4.98-11.18h8.21c.15 7.26 2.15 13.33 5.06 16.2H8.12l4.37-4.38h-.01Zm11.49 4.38c-3.33 0-6.88-6.48-7.09-16.2h14.18c-.21 9.72-3.76 16.2-7.09 16.2Zm17.07-18h-8.17c-.15-7.26-2.15-13.33-5.06-16.2h11.98l-4.36 4.38.63.64c3.01 3.03 4.76 6.97 4.98 11.18Z" fill="currentColor"/></symbol><symbol fill="none" viewBox="0 0 48 48" id="sports" xmlns="http://www.w3.org/2000/svg"><path d="M27.58 27.68c2.15-1.39 4.3-2.43 6.39-3.09l.54 1.72c-1.93.61-3.94 1.58-5.95 2.88-2.01 1.3-3.72 2.73-5.08 4.24l-1.34-1.2c1.46-1.63 3.29-3.17 5.44-4.55Zm13.87 6h-.03a18.738 18.738 0 0 1-6.12 6.47 18.723 18.723 0 0 1-8.42 2.92v.03s-.04-.02-.06-.02c-.57.05-1.15.09-1.72.09-2.55 0-5.1-.52-7.52-1.57a2.986 2.986 0 0 1-1.77-2.67c-.27-3.21 1.44-10.75 8.04-15.26l-2.41-1.68-6.09 1.94-.91 2.52 1.08 1.51c.33.03.66.06 1 .06l-.03 1.8c-7.12-.12-11.2-5.21-12.08-10.19-.88-5 1.19-11.18 7.81-13.72 4.92-1.81 10.29-.38 13.68 3.64 3.44 4.07 3.94 9.48 1.29 14.1l-.13.24-.24.12A16.495 16.495 0 0 0 20.2 30c.09 4.73 2.79 9.08 6.97 11.26a16.94 16.94 0 0 0 7.15-2.59c2.19-1.42 3.99-3.29 5.3-5.45-.27-4.73-3.15-9-7.46-11.01-.47.07-.94.16-1.43.28l-.44-1.75c5.34-1.34 9.74.16 11.89 1.17 1.04.49 1.71 1.55 1.71 2.71-.04 3.23-.91 6.33-2.45 9.05v.04l.01-.03ZM15.6 6.94l-.95 1.28.85 2.68 5.81 1.93 2.4-1.86V9.85c-1.91-1.83-4.75-3.23-8.11-2.9v-.01Zm-9.32 8.12.85 1.17 3.04.14 3.63-4.93-.85-2.68-1.54-.51c-2.92 1.6-4.54 4.14-5.12 6.8l-.01.01Zm4.8 11.49 1.59-.51 1-2.77-3.66-5.1-2.6-.12-1.16 1.57c.53 2.54 2.05 5.29 4.82 6.93h.01Zm9.56-6.2.04-5.84-5.55-1.84-3.46 4.71 3.41 4.75 5.57-1.77-.01-.01Zm4.89 2.29c.08-.04.15-.09.24-.14 1.87-3.43 1.53-6.78.32-9.38l-1.56-.52-2.05 1.6-.04 6.28 3.1 2.16h-.01Zm-1.51 18.69a14.883 14.883 0 0 1-5.29-8.47c-.95 2.39-1.24 4.61-1.12 5.98.01.52.28.93.7 1.12 1.84.8 3.77 1.25 5.7 1.37h.01Zm16.99-10.98c.68-1.82 1.07-3.77 1.09-5.77 0-.46-.26-.87-.67-1.06-1.26-.59-3.38-1.37-6.03-1.5 2.78 2.04 4.77 5 5.61 8.34v-.01Z" fill="currentColor"/></symbol><symbol fill="none" viewBox="0 0 48 48" id="target" xmlns="http://www.w3.org/2000/svg"><path d="M25.75 21.18c.69-.2 1.41.01 1.89.54h-.03c.48.53.61 1.28.34 1.94l-7.23 18.83a1.84 1.84 0 0 1-1.73 1.18c-.49 0-.96-.19-1.31-.54l-5.06-5.05c-1.04-1.01-1.05-2.62 0-3.74l8.16-7.95 1.26 1.29-8.13 7.92c-.34.37-.36.87-.02 1.2l5.07 5.06L26.28 23l-.06-.09-20.3 5.79-.66.74.64-.64 3.24 3.24c.55.55.85 1.28.85 2.05 0 .77-.3 1.5-.85 2.05l-6.5 6.51-1.27-1.27 6.51-6.51c.21-.21.32-.48.32-.78 0-.3-.11-.57-.32-.78l-3.24-3.24a1.83 1.83 0 0 1-.48-1.78c.17-.64.65-1.14 1.29-1.32l20.3-5.79ZM11.64 39.64l-4 4.003-1.274-1.272 4.001-4.004 1.274 1.273ZM27 5.1c9.87 0 17.91 8.03 17.91 17.9s-8.03 17.9-17.9 17.9c-1.18 0-2.34-.11-3.46-.34l-.12-.02.65-1.71c.95.18 1.93.27 2.93.27 8.88 0 16.1-7.22 16.1-16.1 0-8.88-7.22-16.1-16.1-16.1-8.88 0-16.1 7.22-16.1 16.1v.53l-1.78.51v-.05c-.02-.33-.03-.66-.03-.99 0-9.87 8.03-17.9 17.9-17.9Zm0 7.16c5.92 0 10.74 4.82 10.74 10.74S32.92 33.74 27 33.74c-.22 0-.46-.01-.68-.03h-.28l.68-1.77H27c4.93 0 8.94-4.01 8.94-8.94s-4.01-8.94-8.94-8.94c-4.38 0-8.07 3.14-8.79 7.39l-1.9.54.02-.21c.61-5.43 5.19-9.52 10.67-9.52Z" fill="currentColor"/></symbol><symbol fill="none" viewBox="0 0 48 48" id="travel" xmlns="http://www.w3.org/2000/svg"><path d="M11.1 19h1.8v16h-1.8V19Zm7.8 16V19h-1.8v16h1.8Zm23.56 7.54c-.74.87-1.82 1.36-2.96 1.36H24.49c-1.14 0-2.22-.5-2.96-1.36-.41-.48-.68-1.04-.82-1.64H8.87c.08.18.13.39.13.6 0 .83-.67 1.5-1.5 1.5S6 42.33 6 41.5c0-.37.14-.71.37-.97C5.04 39.91 4.1 38.57 4.1 37V17c0-2.15 1.75-3.9 3.9-3.9h3.1V6.9H10V5.1h10v1.8h-1.1v6.2H22c2.15 0 3.9 1.75 3.9 3.9v10h-1.8V17a2.1 2.1 0 0 0-2.1-2.1H8A2.1 2.1 0 0 0 5.9 17v20c0 1.16.94 2.1 2.1 2.1h12.69l1.54-10h4.87V29c0-2.7 2.2-4.9 4.9-4.9s4.9 2.2 4.9 4.9v.1h4.87l1.59 10.31c.17 1.13-.15 2.27-.9 3.13ZM12.9 13.1h4.2V6.9h-4.2v6.2Zm16 16h6.2V29c0-1.71-1.39-3.1-3.1-3.1-1.71 0-3.1 1.39-3.1 3.1v.1Zm-5.13 1.8-.55 3.6c5.64 2.11 11.94 2.1 17.56 0l-.55-3.61H23.77v.01Zm17.81 8.78-.52-3.36A26.78 26.78 0 0 1 32 37.9c-3.11 0-6.16-.53-9.06-1.58l-.52 3.36c-.09.61.08 1.22.48 1.69.4.47.98.73 1.59.73H39.5c.61 0 1.19-.27 1.59-.73.4-.47.58-1.08.48-1.69h.01Z" fill="currentColor"/></symbol><symbol fill="none" viewBox="0 0 48 48" id="trophy" xmlns="http://www.w3.org/2000/svg"><path d="m34.34 21.27.84-3.17h-9.74c.3-.97.59-2.11.76-3.33l1.46.36c.5.13 1.01.19 1.51.19 2.7 0 5.17-1.77 5.88-4.44l.45-1.69-1.72-.43c-3.23-.81-6.54 1.09-7.38 4.25l-.05.18c.05-1.31-.09-2.64-.52-3.9.75-.43 1.34-1.14 1.57-2.02.23-.85.1-1.74-.35-2.5a3.364 3.364 0 0 0-2.1-1.56c-1.81-.45-3.66.62-4.13 2.39-.23.85-.1 1.74.35 2.5.46.78 1.21 1.34 2.1 1.56.27.07.55.1.82.1.42 1.17.51 2.47.43 3.72l-.2-.45c-1.33-2.94-4.87-4.29-7.89-3l-1.62.69.72 1.59c.99 2.19 3.19 3.49 5.5 3.49.8 0 1.61-.16 2.39-.49l.94-.4c-.2 1.25-.53 2.37-.8 3.19H12.83l.84 3.17c-3.13.38-5.56 3.04-5.56 6.27 0 3.49 2.84 6.32 6.32 6.32v-1.8c-2.49 0-4.52-2.03-4.52-4.52 0-2.49 1.87-4.34 4.23-4.49l1.89 7.13c.87 3.28 3.47 5.69 6.58 6.26-.42.78-1.07 1.5-1.85 1.99-2.1 1.32-3.56 3.08-4.22 5.07l-.47 1.41h15.88l-.47-1.41c-.66-2-2.12-3.75-4.22-5.07a5.48 5.48 0 0 1-1.85-1.98c3.11-.57 5.71-2.98 6.58-6.26l1.89-7.13c2.35.16 4.23 2.1 4.23 4.49s-2.03 4.52-4.52 4.52v1.8c3.49 0 6.32-2.84 6.32-6.32 0-3.23-2.43-5.89-5.56-6.27l-.01-.01ZM33.28 10.5c-.61 2.15-2.89 3.44-5.13 2.91.61-2.15 2.89-3.44 5.13-2.91ZM17.2 11.65c2.08-.85 4.49.05 5.43 2.03-2.08.85-4.48-.05-5.43-2.03Zm5.51-4.47c-.2-.34-.26-.74-.16-1.13.18-.69.83-1.15 1.55-1.15.13 0 .27.02.41.05.42.11.77.36.99.73.2.34.26.74.16 1.13-.22.82-1.1 1.32-1.96 1.1a1.6 1.6 0 0 1-.99-.73Zm6.65 35.92H18.65c.63-1.2 1.67-2.28 3.06-3.15.94-.59 1.74-1.4 2.3-2.32.56.92 1.36 1.73 2.3 2.32 1.38.87 2.43 1.95 3.06 3.15h-.01Zm.89-13.38c-.79 2.97-3.35 5.05-6.25 5.05s-5.46-2.08-6.25-5.05l-2.6-9.82h17.69l-2.6 9.82h.01Z" fill="currentColor"/></symbol><symbol fill="none" viewBox="0 0 48 48" id="trust-and-safety" xmlns="http://www.w3.org/2000/svg"><path d="M38.45 27.74c3.33-3.33 3.33-8.75 0-12.08s-8.75-3.33-12.08 0l-7.93 8.06c.29.36.63.59 1.05.68 1.3.29 3.38-.65 5.84-2.64 1.46-1.18 3.59-1.05 4.94.3l7.27 7.27a3.247 3.247 0 0 1 0 4.58c-.39.39-.87.67-1.38.82a3.243 3.243 0 0 1-.52 3.91c-1.17 1.17-3.18 1.23-4.41.15-.15.46-.41.9-.78 1.26-1.02 1.02-2.69 1.22-3.91.52-.15.51-.43.98-.82 1.37-.67.67-1.48 1.01-2.35 1.01-.87 0-1.68-.34-2.29-.95L8.32 29.24c-3.97-3.97-4.28-10.28-.7-14.35 1.92-2.18 4.56-3.43 7.45-3.53 2.84-.1 5.64 1.01 7.65 3.02l-1.27 1.27a8.431 8.431 0 0 0-6.32-2.5 8.49 8.49 0 0 0-6.15 2.91c-2.96 3.37-2.68 8.59.62 11.89L22.35 40.7c.54.54 1.49.54 2.03 0 .33-.33.48-.69.48-1.08 0-.39-.15-.74-.42-1.02l-4.49-4.49 1.27-1.27 5.9 5.9c.54.54 1.49.54 2.03 0 .56-.56.56-1.47 0-2.03l-5.9-5.9 1.27-1.27 7.79 7.79c.54.54 1.49.54 2.03 0a1.446 1.446 0 0 0 0-2.04l-1.4-1.4-.02-.02-6.35-6.35 1.27-1.27 6.36 6.36c.54.53 1.48.53 2.02-.01.57-.57.57-1.48 0-2.04l-7.27-7.27c-.7-.7-1.79-.78-2.54-.17-2.98 2.4-5.45 3.41-7.35 2.99-1.13-.25-2.01-.97-2.6-2.16l-.29-.58 8.88-9.02c4.04-4.04 10.6-4.04 14.63 0 4.03 4.03 4.03 10.59 0 14.63l-1.27-1.27.04.03ZM23.46 7.41c.2-.02.42-.03.67-.03.23 0 .45.01.65.03h.13l.5-3.24-.12-.03c-.37-.09-.76-.13-1.17-.13-.39 0-.78.05-1.17.13l-.12.04.5 3.25h.13v-.02Zm4.94 1.22c.19.15.36.29.51.43l.1.09 2.39-2.27-.08-.1a5.125 5.125 0 0 0-1.86-1.43l-.12-.05-1.59 2.89.11.07c.17.11.35.23.54.37Zm-9.41.09a6.575 6.575 0 0 1 1.05-.8l.11-.07-1.59-2.89-.12.05c-.36.17-.71.37-1.03.62-.3.24-.58.51-.83.81l-.08.1 2.39 2.27.1-.09Z" fill="currentColor"/></symbol><symbol fill="none" viewBox="0 0 48 48" id="vault" xmlns="http://www.w3.org/2000/svg"><path d="M34.89 27.83s-2.6-2.58-4.46-6.24a.893.893 0 0 0-.8-.49H18.38c-.34 0-.65.19-.8.49-1.87 3.65-4.44 6.21-4.46 6.24a.9.9 0 0 0-.04 1.24l10.26 11.58c.17.19.42.3.67.3.25 0 .5-.11.67-.3l10.26-11.58a.9.9 0 0 0-.04-1.24h-.01ZM24.21 22.9c.68 2.06 1.65 3.74 2.37 4.82h-5.16c.72-1.08 1.69-2.76 2.37-4.82h.42Zm-3.11 6.62h5.81l-2.9 7.91-2.9-7.91h-.01Zm-2.18-6.62h2.96c-.92 2.47-2.26 4.29-2.68 4.82h-2.13v1.8h2.11l2.33 6.36-6.55-7.39c.87-.96 2.54-2.96 3.96-5.59Zm7.57 12.98 2.33-6.36h2.11v-1.8H28.8c-.42-.53-1.76-2.35-2.68-4.82h2.96c1.41 2.62 3.09 4.63 3.96 5.59l-6.55 7.39Zm8.72-16.7V13.5c0-6.29-5.11-11.4-11.4-11.4s-11.4 5.11-11.4 11.4v5.68c-2.48 2.73-4 6.35-4 10.32 0 8.49 6.91 15.4 15.4 15.4s15.4-6.91 15.4-15.4c0-3.97-1.52-7.58-4-10.32ZM23.81 3.9c5.29 0 9.6 4.31 9.6 9.6v3.98a15.32 15.32 0 0 0-19.2 0V13.5c0-5.29 4.31-9.6 9.6-9.6Zm0 39.2c-7.5 0-13.6-6.1-13.6-13.6 0-3.74 1.52-7.14 3.98-9.6h.02v-.02c2.46-2.46 5.86-3.98 9.6-3.98 7.5 0 13.6 6.1 13.6 13.6s-6.1 13.6-13.6 13.6Z" fill="currentColor"/></symbol><symbol fill="none" viewBox="0 0 48 48" id="verified" xmlns="http://www.w3.org/2000/svg"><path d="m38.88 29.97 1.27 1.27c-2.22 2.22-4.13 5.63-4.15 5.66-.14.25-.38.42-.66.45h-.12a.9.9 0 0 1-.64-.26l-2.73-2.73 1.27-1.27 1.91 1.92c.77-1.25 2.21-3.4 3.84-5.04h.01ZM23.55 34.1h-8.58c-1.14 0-2.06-.93-2.06-2.06V7.96c0-1.14.93-2.06 2.06-2.06h16.07c1.14 0 2.06.93 2.06 2.06V23h1.8V7.96c0-2.13-1.73-3.86-3.86-3.86H14.96c-2.13 0-3.86 1.73-3.86 3.86v24.07c0 2.13 1.73 3.86 3.86 3.86h6.32l-9.36 2.59c-.52.1-1.06 0-1.51-.31-.47-.31-.78-.79-.89-1.35l-4.7-23.57a2.07 2.07 0 0 1 1.63-2.41l2.7-.53-.35-1.77-2.7.53a3.869 3.869 0 0 0-3.04 4.52l4.71 23.58c.2 1.03.78 1.92 1.65 2.5.63.43 1.35.65 2.12.65.27 0 .54-.03.81-.08l11.6-3.21c.73-.2 1.18-.89 1.08-1.64-.1-.75-.72-1.29-1.48-1.29Zm4.45-10H17v1.8h11v-1.8Zm-3 5.8v-1.8h-5v1.8h5Zm3.84-15.3c-.26 1.59-1.49 4.03-5.88 6.63l-.46.27-.46-.27c-4.39-2.59-5.62-5.03-5.88-6.63-.2-1.21.1-2.35.84-3.21.75-.87 1.86-1.28 3.04-1.15.93.1 1.78.53 2.45 1.21a4.04 4.04 0 0 1 2.43-1.21c1.17-.13 2.32.3 3.06 1.15.74.86 1.04 2 .84 3.21h.02Zm-2.21-2.02c-.36-.41-.91-.61-1.5-.54-.76.09-1.43.58-1.84 1.35l-.79 1.48-.8-1.48c-.42-.78-1.1-1.28-1.86-1.36-.59-.07-1.13.13-1.49.54-.39.46-.54 1.06-.43 1.74.16.95.96 2.85 4.57 5.09 3.6-2.24 4.4-4.14 4.56-5.09.11-.68-.04-1.28-.43-1.74l.01.01ZM45.4 34c0 .97-.59 1.73-1.06 2.35-.24.31-.47.61-.58.87-.12.28-.17.67-.22 1.08-.11.79-.23 1.7-.89 2.35-.66.66-1.56.78-2.36.89-.41.06-.8.11-1.08.22-.26.11-.55.33-.87.58-.61.47-1.38 1.06-2.35 1.06-.97 0-1.73-.59-2.35-1.06-.32-.24-.61-.47-.87-.58-.28-.12-.67-.17-1.08-.23-.79-.11-1.7-.23-2.35-.89-.66-.66-.78-1.56-.89-2.36-.06-.41-.11-.8-.22-1.08-.11-.26-.33-.55-.58-.87-.47-.61-1.06-1.38-1.06-2.35 0-.97.59-1.73 1.06-2.35.24-.31.47-.61.58-.87.12-.28.17-.67.22-1.08.11-.79.23-1.7.89-2.35.66-.66 1.56-.78 2.36-.89.41-.06.8-.11 1.08-.22.26-.11.55-.33.87-.58.61-.47 1.38-1.06 2.35-1.06.97 0 1.73.59 2.35 1.06.32.24.61.47.87.58.28.12.67.17 1.08.23.79.11 1.7.23 2.35.89.66.66.78 1.56.89 2.36.06.41.11.8.22 1.08.11.26.33.55.58.87.47.61 1.06 1.38 1.06 2.35Zm-1.8 0c0-.36-.33-.79-.69-1.25-.3-.39-.62-.8-.81-1.28-.21-.5-.28-1.02-.35-1.52-.07-.54-.15-1.09-.38-1.33-.23-.23-.79-.31-1.33-.38-.51-.07-1.03-.14-1.52-.35-.48-.2-.88-.51-1.28-.81-.46-.35-.89-.69-1.25-.69s-.79.33-1.25.69c-.39.3-.8.62-1.28.81-.49.2-1.02.28-1.52.34-.54.07-1.09.15-1.33.38-.23.23-.31.79-.38 1.32-.07.51-.14 1.03-.35 1.52-.2.48-.51.88-.81 1.28-.35.46-.69.89-.69 1.25s.33.79.69 1.25c.3.39.62.8.81 1.28.21.5.28 1.02.35 1.52.07.54.15 1.09.38 1.33.23.23.79.31 1.33.38.51.07 1.03.14 1.52.35.48.2.88.51 1.28.81.46.35.89.69 1.25.69s.79-.33 1.25-.69c.39-.3.8-.62 1.28-.81.49-.2 1.02-.28 1.52-.34.54-.07 1.09-.15 1.33-.38.23-.23.31-.79.38-1.32.07-.51.14-1.03.35-1.52.2-.48.51-.88.81-1.28.35-.46.69-.89.69-1.25Z" fill="currentColor"/></symbol><symbol fill="none" viewBox="0 0 48 48" id="volunteer" xmlns="http://www.w3.org/2000/svg"><path d="M39.91 33c0-1.6-1.3-2.9-2.9-2.9h-4.44c.06-.19.1-.38.13-.58.23-1.65-.74-2.82-1.04-3.14l-.27-.28h-4.8c-.23 0-.45.03-.67.08.46-2.44 1.02-4.8 1.59-6.98.88.84 2.04 1.3 3.23 1.3.78 0 1.57-.2 2.29-.61a4.666 4.666 0 0 0 1.83-6.2c2.07-1.32 2.76-4.06 1.54-6.22-1.24-2.18-4-2.98-6.2-1.83a4.658 4.658 0 0 0-6.22-1.54 4.666 4.666 0 0 0-1.83 6.2 4.658 4.658 0 0 0-1.54 6.22c1.05 1.85 3.19 2.69 5.17 2.21-.59 2.25-1.17 4.69-1.65 7.23l-4.41-2.21h-.21c-4.41 0-6.27 2.49-6.92 3.74l-5.51-.58-.19 1.79 6.89.73.22-.7s1.01-3.07 5.3-3.17l4.33 2.17-.04.09c-.29.57-.85 1.27-2.4.85l-2.44-.93a1.024 1.024 0 0 0-1.53.98c.08.95-.12 2.68-2.3 3.59l.69 1.66c2.49-1.03 3.2-2.91 3.37-4.22l1.65.63c1.08.3 2.04.26 2.84-.08-.23 1.91-.38 3.83-.38 5.71h1.8c0-1.48.1-2.99.25-4.5.43.25.92.4 1.45.4h10.42c.61 0 1.1.49 1.1 1.1 0 .61-.49 1.1-1.1 1.1H26.94v1.8h8.46c.61 0 1.1.49 1.1 1.1 0 .61-.49 1.1-1.1 1.1H25.14v1.8h7.06c.61 0 1.1.49 1.1 1.1 0 .29-.11.57-.32.78-.21.21-.45.35-.79.32H19.14c-4.89 0-5.65-3.15-5.67-3.28l-1.77.35c.04.22.12.46.23.73l-4.98.53.19 1.79 5.89-.62c1.14 1.22 3.07 2.31 6.1 2.31h13.06c.77 0 1.5-.3 2.05-.85a2.883 2.883 0 0 0 .63-3.15h.52c1.6 0 2.9-1.3 2.9-2.9 0-.46-.11-.89-.3-1.28 1.11-.41 1.9-1.47 1.9-2.73l.02-.01ZM22.18 15.64a2.85 2.85 0 0 1 1.07-3.89c.15-.09.32-.16.51-.21l1.39-.42-1-1.06c-.15-.16-.27-.32-.36-.48a2.85 2.85 0 0 1 1.07-3.89c1.37-.78 3.12-.29 3.9 1.07.08.15.16.32.22.52l.42 1.38 1.05-.99c.16-.15.32-.27.48-.36 1.37-.78 3.12-.3 3.9 1.07.78 1.37.3 3.12-1.07 3.89-.16.09-.32.16-.51.21l-1.39.42 1 1.06c.15.16.27.32.36.48.78 1.37.3 3.12-1.07 3.9-1.37.78-3.12.3-3.89-1.07-.09-.16-.16-.32-.21-.51l-.42-1.39-1.06 1c-.16.15-.32.27-.48.36-1.37.78-3.12.3-3.9-1.07l-.01-.02ZM28.6 30.1h-2.01c-.61 0-1.1-.49-1.1-1.1 0-.61.49-1.1 1.1-1.1h3.97c.2.3.43.79.34 1.38-.05.34-.19.62-.33.83h-1.98l.01-.01Zm-2.13-16.94c-.64-1.13-.25-2.56.88-3.21 1.13-.64 2.56-.25 3.21.88.64 1.13.25 2.56-.88 3.21-1.13.64-2.56.25-3.21-.88Z" fill="currentColor"/></symbol><symbol fill="none" viewBox="0 0 48 48" id="watering-plants" xmlns="http://www.w3.org/2000/svg"><path d="M23.26 12.46c-.47.69-2.81 4.19-2.81 5.85a3.55 3.55 0 0 0 7.1 0c0-1.66-2.34-5.17-2.81-5.85L24 11.37l-.74 1.09Zm2.49 5.85c0 .97-.79 1.75-1.75 1.75s-1.75-.79-1.75-1.75c0-.58.82-2.18 1.75-3.7.94 1.51 1.75 3.11 1.75 3.7Zm19.15 5.65c0 11.52-9.38 20.9-20.9 20.9-11.52 0-20.9-9.37-20.9-20.9 0-7.56 4.16-14.58 10.86-18.34 2.1-1.17 4.46-1.46 6.49-.77 1.73.58 3.08 1.82 3.81 3.49l-1.65.72c-.53-1.22-1.48-2.08-2.73-2.51-1.55-.52-3.39-.29-5.04.64-6.13 3.43-9.94 9.86-9.94 16.77 0 10.23 8.09 18.58 18.2 19.05v-8.32c0-4.01-1.14-7.15-3.39-9.35-2.81-2.75-6.67-3.33-8.31-3.45-.17 2.48-.05 9.85 7.05 11.33.09.02.14.01.16.01 0 .01.02-.08.02-.26 0-2.59-2.69-5.35-2.72-5.38l1.28-1.27c.13.13 3.24 3.31 3.24 6.64 0 .7-.25 1.29-.71 1.67-.43.35-1.01.47-1.64.34-10.05-2.1-8.4-14.04-8.38-14.16l.11-.75.76-.02c.25 0 6.2-.11 10.39 3.98 1.39 1.36 2.41 3.01 3.06 4.94.66-1.91 1.68-3.55 3.06-4.9 4.24-4.14 10.26-4.03 10.51-4.03l.76.02.11.75c.02.12 1.69 12.2-8.47 14.33-.63.13-1.22 0-1.65-.35-.46-.37-.71-.97-.71-1.68 0-3.37 3.14-6.58 3.27-6.72l1.28 1.27s-2.75 2.82-2.75 5.45c0 .18.04.27.06.29 0-.01.05 0 .14-.03 7.2-1.51 7.31-9 7.14-11.5-1.66.12-5.58.71-8.43 3.5-2.28 2.23-3.43 5.41-3.43 9.47v8.16c10.11-.47 18.2-8.83 18.2-19.05S35.41 5.74 25.6 4.93l.15-1.79c10.74.89 19.15 10.04 19.15 20.83v-.01Z" fill="currentColor"/></symbol><symbol fill="none" viewBox="0 0 48 48" id="wishes" xmlns="http://www.w3.org/2000/svg"><path d="M41.41 18.86c-.14-.1-3.52-2.39-7.47-1.62-2.47.48-4.58 2.04-6.27 4.62-.95 1.44-1.89 3.09-2.67 4.51V15.51l3.67 2.11c.23.13.5-.07.44-.32l-1.15-5.24L32 8.42c.19-.17.09-.5-.17-.52l-5.34-.52-2.21-4.97a.3.3 0 0 0-.55 0l-2.15 4.91-5.41.57a.3.3 0 0 0-.17.52l4.01 3.56-1.13 5.32c-.05.26.22.45.45.32l3.87-2.27v10.92l-.96-1.44c-.4-.58-.79-1.16-1.15-1.72-1.68-2.65-3.8-4.27-6.3-4.79-3.99-.84-7.44 1.43-7.58 1.53l-.7.47.42.73c1.51 2.62 5.79 7.05 11.13 5.05l-.63-1.69c-4.16 1.55-7.26-1.89-8.43-3.5 1.1-.53 3.2-1.3 5.44-.83 2 .43 3.73 1.77 5.14 3.99.37.58.77 1.17 1.18 1.77.73 1.07 1.47 2.17 2.05 3.25h-5.44l-2.86 8.3c-.44 1.44-.39 2.89.12 4.11.85 2.01 3.18 4.4 9.38 4.4 6.2 0 8.53-2.39 9.38-4.4.52-1.21.56-2.67.11-4.14l-2.85-8.27H27v1.8h2.37l2.42 7.02c.32 1.03.29 2.05-.06 2.88-1.16 2.73-4.84 3.3-7.73 3.3-2.89 0-6.56-.57-7.73-3.3-.35-.82-.37-1.85-.07-2.85l2.44-7.06h6.01l.25-.5s2.21-4.4 4.27-7.55c1.41-2.16 3.13-3.45 5.1-3.84 2.21-.44 4.28.36 5.35.9-1.1 1.54-3.97 4.74-8 3.16l-.66 1.68c5.25 2.06 9.3-2.18 10.71-4.71l.4-.71-.67-.46.01.02Zm-20.07-4.47.43-2.03c.13-.6-.08-1.22-.53-1.63L19.7 9.34l2.07-.22c.61-.06 1.14-.45 1.38-1.01l.85-1.9.85 1.9c.25.56.78.94 1.38 1l2.07.22-1.54 1.39c-.45.41-.66 1.03-.53 1.63l.43 2.04-1.8-1.04c-.53-.3-1.18-.3-1.71 0l-1.8 1.04h-.01Z" fill="currentColor"/></symbol><symbol fill="none" viewBox="0 0 48 48" id="youth-development" xmlns="http://www.w3.org/2000/svg"><path d="M40.14 16.94c-2.15.16-7.16.92-10.82 4.5-2.94 2.87-4.42 6.97-4.42 12.19v2.99c5.75.22 11.43 2.49 15.81 6.87l-1.27 1.27c-4.03-4.03-9.25-6.12-14.54-6.34v2.6h-1.8v-2.6c-5.29.22-10.51 2.31-14.54 6.34l-1.27-1.27c4.38-4.38 10.06-6.65 15.81-6.87v-2.99c0-5.21-1.49-9.31-4.42-12.19-3.66-3.57-8.67-4.34-10.82-4.5.64 3.25 3.34 13.1 12.7 15.05l-.37 1.76c-5.18-1.08-9.3-4.49-11.91-9.86-1.94-4-2.37-7.64-2.38-7.79l-.11-.97.98-.02c.32 0 7.85-.13 13.15 5.04 1.92 1.87 3.27 4.2 4.08 6.93.81-2.73 2.16-5.06 4.08-6.93 5.31-5.17 12.83-5.05 13.15-5.04l.98.02-.11.97c-.02.15-.44 3.79-2.38 7.79-2.61 5.37-6.73 8.78-11.91 9.86l-.37-1.76c9.36-1.96 12.05-11.8 12.7-15.05ZM16.6 10.49c0-4.08 3.32-7.4 7.4-7.4s7.4 3.32 7.4 7.4-3.32 7.4-7.4 7.4-7.4-3.32-7.4-7.4Zm1.8 0c0 3.09 2.51 5.6 5.6 5.6s5.6-2.51 5.6-5.6-2.51-5.6-5.6-5.6-5.6 2.51-5.6 5.6Zm5.6 2.82c1.28 0 2.47-.66 3.34-1.85l-1.45-1.06c-1.05 1.44-2.73 1.44-3.78 0l-1.45 1.06c.87 1.2 2.06 1.85 3.34 1.85Z" fill="currentColor"/></symbol></svg>